<svg width="22" height="22" viewBox="0 0 22 22" fill="none" xmlns="http://www.w3.org/2000/svg">
<path d="M18.889 11.2141V20.6141C18.889 20.6929 18.8737 20.7709 18.8441 20.8437C18.8144 20.9165 18.771 20.9827 18.7162 21.0384C18.6614 21.0941 18.5964 21.1383 18.5248 21.1684C18.4533 21.1986 18.3766 21.2141 18.2991 21.2141H3.74939C3.67193 21.2141 3.59523 21.1986 3.52367 21.1684C3.4521 21.1383 3.38708 21.0941 3.3323 21.0384C3.27753 20.9827 3.23408 20.9165 3.20444 20.8437C3.1748 20.7709 3.15954 20.6929 3.15954 20.6141V11.2141M11.0243 21.2141V6.21411M11.0243 6.21411H6.60035C5.94852 6.21411 5.32339 5.95072 4.86248 5.48188C4.40157 5.01304 4.14263 4.37715 4.14263 3.71411C4.14263 3.05107 4.40157 2.41519 4.86248 1.94634C5.32339 1.4775 5.94852 1.21411 6.60035 1.21411C10.0412 1.21411 11.0243 6.21411 11.0243 6.21411ZM11.0243 6.21411H15.4482C16.1 6.21411 16.7251 5.95072 17.186 5.48188C17.6469 5.01304 17.9059 4.37715 17.9059 3.71411C17.9059 3.05107 17.6469 2.41519 17.186 1.94634C16.7251 1.4775 16.1 1.21411 15.4482 1.21411C12.0073 1.21411 11.0243 6.21411 11.0243 6.21411ZM20.2653 6.21411H1.78321C1.62677 6.21411 1.47674 6.27733 1.36612 6.38985C1.2555 6.50237 1.19336 6.65498 1.19336 6.81411V10.6141C1.19336 10.7732 1.2555 10.9259 1.36612 11.0384C1.47674 11.1509 1.62677 11.2141 1.78321 11.2141H20.2653C20.4217 11.2141 20.5718 11.1509 20.6824 11.0384C20.793 10.9259 20.8552 10.7732 20.8552 10.6141V6.81411C20.8552 6.65498 20.793 6.50237 20.6824 6.38985C20.5718 6.27733 20.4217 6.21411 20.2653 6.21411Z" stroke="white" stroke-linecap="round" stroke-linejoin="round"/>
</svg>
