<svg width="60" height="60" viewBox="0 0 60 60" fill="none" xmlns="http://www.w3.org/2000/svg">
<rect width="60" height="60" rx="8" fill="#B52210"/>
<path d="M38.8498 21.2542C37.6746 22.4264 36.5289 23.5701 35.3644 24.7325C35.3305 24.7111 35.2636 24.6807 35.2119 24.6334C32.2289 21.9215 27.0258 22.3131 24.3801 26.2276C21.2007 30.9315 24.0918 37.3875 29.7322 38.0432C32.3002 38.342 34.6087 37.6534 36.2817 35.507C36.8359 34.796 37.1767 33.9816 37.3311 33.0297C35.0548 33.0297 32.8187 33.0297 30.5611 33.0297C30.5611 31.3954 30.5611 29.812 30.5611 28.1991C34.4623 28.1991 38.3501 28.1991 42.2942 28.1991C42.345 28.5515 42.4146 28.9119 42.4467 29.2749C42.718 32.283 42.2772 35.1511 40.6496 37.7479C38.8811 40.5696 36.2844 42.2057 33.0355 42.7677C28.7827 43.5036 24.961 42.5152 21.8646 39.458C18.274 35.9111 17.1416 31.5703 18.6514 26.7691C20.1612 21.9688 23.5716 19.0722 28.5454 18.1989C32.1227 17.5708 35.3876 18.4362 38.2493 20.7119C38.4117 20.8412 38.5661 20.9822 38.7222 21.1195C38.7659 21.1579 38.8025 21.2043 38.8498 21.2542Z" fill="white"/>
</svg>
