<svg width="18" height="15" viewBox="0 0 18 15" fill="none" xmlns="http://www.w3.org/2000/svg">
<path fill-rule="evenodd" clip-rule="evenodd" d="M8.9379 14.8044L8.65118 14.5706C2.40172 9.47101 0.710571 7.67372 0.710571 4.75616C0.710571 2.35977 2.65928 0.406616 5.05021 0.406616C7.04751 0.406616 8.1798 1.54636 8.9379 2.39874C9.696 1.54149 10.8283 0.406616 12.8256 0.406616C15.2165 0.406616 17.1652 2.35977 17.1652 4.75616C17.1652 7.67372 15.4741 9.47101 9.22462 14.5706L8.9379 14.8044ZM5.05021 1.31257C3.15496 1.31257 1.61446 2.85659 1.61446 4.75616C1.61446 7.25484 3.18412 8.92549 8.9379 13.6355C14.6917 8.92549 16.2613 7.25484 16.2613 4.75616C16.2613 2.85659 14.7208 1.31257 12.8256 1.31257C11.1 1.31257 10.1966 2.33891 9.46964 3.16469C9.46572 3.16915 9.4618 3.1736 9.45788 3.17805L8.9379 3.76254L8.41792 3.17805C7.68898 2.34516 6.78509 1.31257 5.05021 1.31257Z" fill="black"/>
<path fill-rule="evenodd" clip-rule="evenodd" d="M8.9379 14.8044L8.65118 14.5706C2.40172 9.47101 0.710571 7.67372 0.710571 4.75616C0.710571 2.35977 2.65928 0.406616 5.05021 0.406616C7.04751 0.406616 8.1798 1.54636 8.9379 2.39874C9.696 1.54149 10.8283 0.406616 12.8256 0.406616C15.2165 0.406616 17.1652 2.35977 17.1652 4.75616C17.1652 7.67372 15.4741 9.47101 9.22462 14.5706L8.9379 14.8044ZM5.05021 1.31257C3.15496 1.31257 1.61446 2.85659 1.61446 4.75616C1.61446 7.25484 3.18412 8.92549 8.9379 13.6355C14.6917 8.92549 16.2613 7.25484 16.2613 4.75616C16.2613 2.85659 14.7208 1.31257 12.8256 1.31257C11.1 1.31257 10.1966 2.33891 9.46964 3.16469C9.46572 3.16915 9.4618 3.1736 9.45788 3.17805L8.9379 3.76254L8.41792 3.17805C7.68898 2.34516 6.78509 1.31257 5.05021 1.31257Z" fill="black"/>
<path fill-rule="evenodd" clip-rule="evenodd" d="M8.65118 14.5706L8.9379 14.8044L9.22462 14.5706C15.4741 9.47101 17.1652 7.67372 17.1652 4.75616C17.1652 2.35977 15.2165 0.406616 12.8256 0.406616C10.8283 0.406616 9.696 1.54149 8.9379 2.39874C8.1798 1.54636 7.04751 0.406616 5.05021 0.406616C2.65928 0.406616 0.710571 2.35977 0.710571 4.75616C0.710571 7.67372 2.40172 9.47101 8.65118 14.5706ZM1.61446 4.75616C1.61446 2.85659 3.15496 1.31257 5.05021 1.31257C6.78509 1.31257 7.68898 2.34516 8.41792 3.17805L8.9379 3.76254L9.45788 3.17805L9.46964 3.16469C10.1966 2.33891 11.1 1.31257 12.8256 1.31257C14.7208 1.31257 16.2613 2.85659 16.2613 4.75616C16.2613 7.25484 14.6917 8.92549 8.9379 13.6355C3.18412 8.92549 1.61446 7.25484 1.61446 4.75616Z" fill="black"/>
</svg>
