<svg width="21" height="15" viewBox="0 0 21 15" fill="none" xmlns="http://www.w3.org/2000/svg">
<path d="M12.6274 10.651C12.3761 10.651 12.1687 10.8744 12.1687 11.1536L12.1647 13.9976L1.4228 13.9897L1.42679 1.61631H12.1687V4.46035C12.1687 4.73558 12.3761 4.96294 12.6274 4.96294C12.8787 4.96294 13.0861 4.73956 13.0861 4.46035V1.45277C13.0861 0.990062 12.7471 0.615112 12.3323 0.615112H1.25926C0.844422 0.615112 0.505371 0.990062 0.505371 1.45277V14.1572C0.505371 14.6199 0.844422 14.9949 1.25926 14.9949H12.3323C12.7471 14.9949 13.0861 14.6199 13.0861 14.1572V11.1456C13.0861 10.8744 12.8787 10.651 12.6274 10.651Z" fill="black"/>
<path d="M20.3815 7.46388L15.7066 2.11486C15.5869 1.97924 15.4194 1.9234 15.2559 1.97525C15.0963 2.02312 14.9687 2.16671 14.9288 2.34222C14.8889 2.50576 14.9328 2.68127 15.0445 2.80892L18.9695 7.31231H7.78879C7.5375 7.31231 7.33008 7.53568 7.33008 7.8149C7.33008 8.09412 7.5375 8.31749 7.78879 8.31749H18.9655L15.0405 12.8209C14.9487 12.9246 14.9049 13.0562 14.9128 13.1918C14.9168 13.3115 14.9647 13.4232 15.0445 13.5189C15.1362 13.6186 15.2519 13.6745 15.3755 13.6745C15.5032 13.6745 15.6189 13.6186 15.7066 13.5189L20.3815 8.16592C20.4613 8.07417 20.5091 7.95052 20.5091 7.81889C20.5091 7.68726 20.4613 7.55563 20.3815 7.46388Z" fill="black"/>
</svg>
