<svg width="22" height="19" viewBox="0 0 22 19" fill="none" xmlns="http://www.w3.org/2000/svg">
<path d="M17.792 2.841L17.7919 2.8409C16.885 2.09255 15.7576 1.71095 14.6285 1.71095C13.7068 1.71095 12.7841 1.96364 11.9743 2.47783L11.9741 2.47799C11.5244 2.76444 11.1339 3.10953 10.7727 3.523C10.6994 3.44577 10.6068 3.35039 10.5058 3.24986C10.2854 3.03039 10.0128 2.77349 9.81629 2.63348L9.81585 2.63317C8.93154 2.00667 7.92013 1.71352 6.92556 1.71352C5.51493 1.71352 4.13734 2.30662 3.22417 3.38491L3.22407 3.38502C1.86683 4.9901 1.48952 7.20341 2.63975 9.18266L2.63991 9.18294C3.19566 10.1357 3.92354 10.9444 4.66099 11.7211C6.37121 13.5229 8.30523 15.0596 10.2792 16.5329L10.2801 16.5335C10.4361 16.6488 10.5984 16.7289 10.7835 16.7289C10.9783 16.7289 11.1492 16.6418 11.3146 16.5166C12.76 15.4233 14.1957 14.3049 15.537 13.0658C16.644 12.0446 17.6803 10.9571 18.572 9.72865L18.5721 9.72854C19.3966 8.59122 19.7602 7.32099 19.5553 5.91692L19.5552 5.91672C19.3716 4.66671 18.7645 3.64475 17.792 2.841ZM10.6512 1.52227L10.7738 1.6201L10.9016 1.52909C11.0069 1.45407 11.1152 1.3812 11.2242 1.31039C12.2368 0.66474 13.4147 0.322925 14.6285 0.322925C16.113 0.322925 17.5517 0.837303 18.6845 1.77504L18.6846 1.7751C19.3026 2.28623 19.8054 2.8732 20.1798 3.52037L20.1799 3.52057C20.5667 4.18752 20.8218 4.92754 20.937 5.71919L20.937 5.71932C21.0648 6.59421 21.017 7.45504 20.7995 8.28037C20.5922 9.06511 20.2243 9.82535 19.7032 10.5434C18.8498 11.7181 17.8285 12.8445 16.4875 14.0847C15.0433 15.4174 13.4999 16.6079 12.1594 17.6203L12.1588 17.6208C11.7201 17.9549 11.2596 18.1169 10.7861 18.1169C10.3217 18.1169 9.87356 17.9618 9.44787 17.6453C7.6151 16.2782 5.50043 14.6248 3.65283 12.6746C2.87597 11.8535 2.07673 10.9742 1.43864 9.87821C0.737121 8.67131 0.452739 7.32225 0.612626 5.97929C0.762591 4.72046 1.2978 3.51338 2.16185 2.49131L2.16186 2.4913C2.73808 1.80964 3.48505 1.25125 4.32252 0.879758L4.32318 0.879465C5.13053 0.517998 6.03175 0.32808 6.92814 0.32808C8.26177 0.32808 9.53948 0.734422 10.6227 1.50236C10.6274 1.50583 10.6317 1.50883 10.635 1.51108L10.6446 1.51763L10.6498 1.52122C10.6508 1.522 10.6512 1.52231 10.6512 1.52227Z" fill="black" stroke="black" stroke-width="0.415962"/>
</svg>
