<svg width="24" height="24" viewBox="0 0 24 24" fill="none" xmlns="http://www.w3.org/2000/svg">
<path d="M11.9292 14.9003C12.9138 14.9003 13.8581 14.5092 14.5543 13.813C15.2505 13.1167 15.6416 12.1725 15.6416 11.1879V6.54737C15.6416 5.56278 15.2505 4.61851 14.5543 3.9223C13.8581 3.22609 12.9138 2.83496 11.9292 2.83496C10.9446 2.83496 10.0003 3.22609 9.30414 3.9223C8.60792 4.61851 8.2168 5.56278 8.2168 6.54737V11.1879C8.2168 12.1725 8.60792 13.1167 9.30414 13.813C10.0003 14.5092 10.9446 14.9003 11.9292 14.9003Z" fill="white"/>
<path d="M17.9616 10.167C17.8139 10.167 17.6722 10.2257 17.5678 10.3301C17.4634 10.4345 17.4047 10.5762 17.4047 10.7239V11.1879C17.4047 12.6402 16.8278 14.033 15.8009 15.0599C14.774 16.0868 13.3812 16.6637 11.9289 16.6637C10.4766 16.6637 9.08382 16.0868 8.05691 15.0599C7.02999 14.033 6.45308 12.6402 6.45308 11.1879V10.7239C6.45308 10.5762 6.39441 10.4345 6.28998 10.3301C6.18555 10.2257 6.04391 10.167 5.89622 10.167C5.74853 10.167 5.60689 10.2257 5.50246 10.3301C5.39802 10.4345 5.33936 10.5762 5.33936 10.7239V11.1879C5.34149 12.8381 5.96229 14.4275 7.07916 15.6424C8.19604 16.8572 9.72781 17.6091 11.372 17.7496V20.2833H8.68053C8.53284 20.2833 8.3912 20.342 8.28677 20.4464C8.18233 20.5509 8.12366 20.6925 8.12366 20.8402C8.12366 20.9879 8.18233 21.1295 8.28677 21.2339C8.3912 21.3384 8.53284 21.397 8.68053 21.397H15.1772C15.3249 21.397 15.4666 21.3384 15.571 21.2339C15.6754 21.1295 15.7341 20.9879 15.7341 20.8402C15.7341 20.6925 15.6754 20.5509 15.571 20.4464C15.4666 20.342 15.3249 20.2833 15.1772 20.2833H12.4858V17.7496C14.13 17.6091 15.6617 16.8572 16.7786 15.6424C17.8955 14.4275 18.5163 12.8381 18.5184 11.1879V10.7239C18.5184 10.5762 18.4598 10.4345 18.3553 10.3301C18.2509 10.2257 18.1092 10.167 17.9616 10.167Z" fill="white"/>
</svg>
