<svg width="14" height="29" viewBox="0 0 14 29" fill="none" xmlns="http://www.w3.org/2000/svg">
<path fill-rule="evenodd" clip-rule="evenodd" d="M7.10706 3.36401C6.42851 3.35903 5.82543 3.67659 5.44031 4.1804C5.29786 4.36676 5.0309 4.40266 4.84404 4.26058C4.65718 4.11851 4.62119 3.85226 4.76365 3.6659C5.30446 2.95841 6.15643 2.5084 7.11332 2.51542C8.06934 2.52243 8.92112 2.9856 9.44913 3.70178C9.58832 3.89057 9.5477 4.15616 9.3584 4.29498C9.1691 4.4338 8.9028 4.39328 8.76361 4.20449C8.38973 3.69737 7.78646 3.36899 7.10706 3.36401Z" fill="black"/>
<path fill-rule="evenodd" clip-rule="evenodd" d="M7.12461 0.86943C5.91641 0.858574 4.82876 1.37357 4.0773 2.20448C3.91993 2.3785 3.65091 2.39233 3.47644 2.23537C3.30196 2.07842 3.28809 1.81012 3.44546 1.63611C4.35329 0.63229 5.67031 0.00798937 7.13132 0.0208398C8.5933 0.0276879 9.89612 0.672164 10.7953 1.68025C10.9515 1.85533 10.9358 2.12353 10.7602 2.27929C10.5847 2.43505 10.3158 2.41938 10.1596 2.24429C9.41154 1.40566 8.33375 0.874866 7.12652 0.869443L7.12461 0.86943Z" fill="black"/>
<path d="M11.3733 6.47169C12.0106 6.47169 12.5217 6.9874 12.5217 7.61703V23.382C12.5217 23.388 12.5157 23.4 12.5037 23.4H1.71707V7.62303C1.71707 6.9874 2.23415 6.47769 2.86548 6.47769H11.3733V6.47169ZM11.3733 5.62617H2.86548C1.75916 5.62617 0.863281 6.51966 0.863281 7.62303V23.6219C0.863281 23.9697 1.14587 24.2515 1.4946 24.2515H12.5037C12.9847 24.2515 13.3695 23.8617 13.3695 23.388V7.62303C13.3755 6.51966 12.4796 5.62617 11.3733 5.62617Z" fill="black"/>
<path fill-rule="evenodd" clip-rule="evenodd" d="M5.94531 25.9246C5.94531 25.6902 6.13579 25.5002 6.37076 25.5002H7.86789C8.10286 25.5002 8.29333 25.6902 8.29333 25.9246C8.29333 26.1589 8.10286 26.3489 7.86789 26.3489H6.37076C6.13579 26.3489 5.94531 26.1589 5.94531 25.9246Z" fill="black"/>
<path d="M12.5217 24.3355V26.5062C12.5217 27.0939 12.0407 27.5736 11.4515 27.5736H2.7813C2.19207 27.5736 1.71106 27.0939 1.71106 26.5062V24.3355H12.5217ZM13.3755 23.4899H0.863281V26.5062C0.863281 27.5616 1.72308 28.4191 2.7813 28.4191H11.4575C12.5157 28.4191 13.3755 27.5616 13.3755 26.5062V23.4899Z" fill="black"/>
</svg>
