<svg width="19" height="16" viewBox="0 0 19 16" fill="none" xmlns="http://www.w3.org/2000/svg">
<path d="M10.9323 4.38932H9.68229V8.55599L13.249 10.6727L13.849 9.66432L10.9323 7.93099V4.38932ZM10.5156 0.222656C8.5265 0.222656 6.61885 1.01283 5.21232 2.41936C3.8058 3.82588 3.01562 5.73353 3.01562 7.72266H0.515625L3.81562 11.081L7.18229 7.72266H4.68229C4.68229 6.17556 5.29687 4.69183 6.39084 3.59787C7.4848 2.5039 8.96853 1.88932 10.5156 1.88932C12.0627 1.88932 13.5465 2.5039 14.6404 3.59787C15.7344 4.69183 16.349 6.17556 16.349 7.72266C16.349 9.26975 15.7344 10.7535 14.6404 11.8474C13.5465 12.9414 12.0627 13.556 10.5156 13.556C8.90729 13.556 7.44896 12.8977 6.39896 11.8393L5.21562 13.0227C5.90852 13.7232 6.73411 14.2785 7.64412 14.6563C8.55414 15.034 9.53033 15.2266 10.5156 15.2227C12.5047 15.2227 14.4124 14.4325 15.8189 13.026C17.2254 11.6194 18.0156 9.71178 18.0156 7.72266C18.0156 5.73353 17.2254 3.82588 15.8189 2.41936C14.4124 1.01283 12.5047 0.222656 10.5156 0.222656Z" fill="white"/>
</svg>
