<svg width="19" height="27" viewBox="0 0 19 27" fill="none" xmlns="http://www.w3.org/2000/svg">
<path fill-rule="evenodd" clip-rule="evenodd" d="M0.0236816 13.0077C0.0236816 12.8038 0.189398 12.6385 0.39382 12.6385H18.6109C18.8153 12.6385 18.981 12.8038 18.981 13.0077V25.8496C18.981 26.0535 18.8153 26.2188 18.6109 26.2188H0.39382C0.189398 26.2188 0.0236816 26.0535 0.0236816 25.8496V13.0077ZM0.763958 13.3769V25.4804H18.2407V13.3769H0.763958Z" fill="black"/>
<path fill-rule="evenodd" clip-rule="evenodd" d="M7.18543 18.2527C7.33784 18.3886 7.35095 18.6219 7.21471 18.7739L0.669781 26.0762C0.533544 26.2282 0.299553 26.2413 0.147146 26.1054C-0.00526134 25.9695 -0.0183701 25.7361 0.117866 25.5841L6.6628 18.2819C6.79904 18.1299 7.03303 18.1168 7.18543 18.2527Z" fill="black"/>
<path fill-rule="evenodd" clip-rule="evenodd" d="M11.8392 18.2523C11.9918 18.1167 12.2258 18.1301 12.3618 18.2823L18.8873 25.5845C19.0233 25.7367 19.0099 25.9701 18.8573 26.1057C18.7046 26.2414 18.4707 26.228 18.3347 26.0758L11.8092 18.7735C11.6731 18.6213 11.6866 18.388 11.8392 18.2523Z" fill="black"/>
<path fill-rule="evenodd" clip-rule="evenodd" d="M0.111269 12.7692C0.243314 12.6136 0.476863 12.5942 0.632916 12.7259L9.48336 20.1947L18.1587 12.8998C18.3149 12.7683 18.5485 12.7882 18.6802 12.944C18.812 13.0999 18.7921 13.3328 18.6358 13.4642L9.72152 20.9602C9.5835 21.0762 9.38166 21.076 9.24385 20.9597L0.15474 13.2895C-0.00131294 13.1578 -0.0207754 12.9248 0.111269 12.7692Z" fill="black"/>
<path fill-rule="evenodd" clip-rule="evenodd" d="M3.67628 4.79225C3.79227 4.79241 3.90075 4.8495 3.96636 4.94489L7.19027 9.63228C7.26425 9.73984 7.27241 9.87943 7.21146 9.99484C7.15051 10.1102 7.03048 10.1825 6.8997 10.1825H5.46532V11.6324C5.46532 11.8265 5.30756 11.9838 5.11295 11.9838C4.91834 11.9838 4.76058 11.8265 4.76058 11.6324V9.83107C4.76058 9.63698 4.91834 9.47964 5.11295 9.47964H6.23069L3.67491 5.76368L1.10374 9.47964H2.23862C2.43322 9.47964 2.59098 9.63698 2.59098 9.83107V11.6324C2.59098 11.8265 2.43322 11.9838 2.23862 11.9838C2.04401 11.9838 1.88625 11.8265 1.88625 11.6324V10.1825H0.432447C0.301481 10.1825 0.181319 10.1101 0.12045 9.9944C0.0595804 9.87875 0.0680461 9.73897 0.142431 9.63147L3.38577 4.94408C3.45164 4.84887 3.56029 4.79209 3.67628 4.79225Z" fill="black"/>
<path fill-rule="evenodd" clip-rule="evenodd" d="M9.42456 0.221085C9.54038 0.221085 9.6488 0.277844 9.71458 0.372912L12.9579 5.0603C13.0323 5.1678 13.0408 5.30758 12.9799 5.42324C12.919 5.53889 12.7989 5.61133 12.6679 5.61133H11.2141V11.6324C11.2141 11.8265 11.0563 11.9839 10.8617 11.9839C10.6671 11.9839 10.5094 11.8265 10.5094 11.6324V5.2599C10.5094 5.06581 10.6671 4.90847 10.8617 4.90847H11.9966L9.42456 1.19126L6.85251 4.90847H7.98739C8.182 4.90847 8.33976 5.06581 8.33976 5.2599V11.6324C8.33976 11.8265 8.182 11.9839 7.98739 11.9839C7.79279 11.9839 7.63503 11.8265 7.63503 11.6324V5.61133H6.18123C6.05026 5.61133 5.9301 5.53889 5.86923 5.42324C5.80836 5.30758 5.81683 5.1678 5.89121 5.0603L9.13455 0.372912C9.20033 0.277844 9.30875 0.221085 9.42456 0.221085Z" fill="black"/>
<path fill-rule="evenodd" clip-rule="evenodd" d="M15.1727 4.88907C15.2887 4.88891 15.3973 4.94568 15.4632 5.0409L18.7066 9.72828C18.7809 9.83579 18.7894 9.97557 18.7285 10.0912C18.6677 10.2069 18.5475 10.2793 18.4165 10.2793H16.9627V11.6324C16.9627 11.8265 16.805 11.9838 16.6104 11.9838C16.4158 11.9838 16.258 11.8265 16.258 11.6324V9.92789C16.258 9.7338 16.4158 9.57646 16.6104 9.57646H17.7453L15.1741 5.8605L12.6183 9.57646H13.736C13.9306 9.57646 14.0884 9.7338 14.0884 9.92789V11.6324C14.0884 11.8265 13.9306 11.9838 13.736 11.9838C13.5414 11.9838 13.3837 11.8265 13.3837 11.6324V10.2793H11.9493C11.8185 10.2793 11.6985 10.2071 11.6375 10.0917C11.5766 9.97625 11.5847 9.83666 11.6587 9.7291L14.8826 5.04171C14.9482 4.94631 15.0567 4.88923 15.1727 4.88907Z" fill="black"/>
</svg>
