<svg width="17" height="18" viewBox="0 0 17 18" fill="none" xmlns="http://www.w3.org/2000/svg">
<g clip-path="url(#clip0_75_161)">
<path fill-rule="evenodd" clip-rule="evenodd" d="M13.314 5.39607C14.3675 5.39607 15.2215 4.54208 15.2215 3.48863C15.2215 2.43517 14.3675 1.58118 13.314 1.58118C12.2606 1.58118 11.4066 2.43517 11.4066 3.48863C11.4066 4.54208 12.2606 5.39607 13.314 5.39607ZM13.314 6.21355C14.819 6.21355 16.039 4.99356 16.039 3.48863C16.039 1.98369 14.819 0.763702 13.314 0.763702C11.8091 0.763702 10.5891 1.98369 10.5891 3.48863C10.5891 4.99356 11.8091 6.21355 13.314 6.21355Z" fill="black"/>
<path fill-rule="evenodd" clip-rule="evenodd" d="M13.314 16.2958C14.3675 16.2958 15.2215 15.4418 15.2215 14.3883C15.2215 13.3349 14.3675 12.4809 13.314 12.4809C12.2606 12.4809 11.4066 13.3349 11.4066 14.3883C11.4066 15.4418 12.2606 16.2958 13.314 16.2958ZM13.314 17.1132C14.819 17.1132 16.039 15.8932 16.039 14.3883C16.039 12.8834 14.819 11.6634 13.314 11.6634C11.8091 11.6634 10.5891 12.8834 10.5891 14.3883C10.5891 15.8932 11.8091 17.1132 13.314 17.1132Z" fill="black"/>
<path fill-rule="evenodd" clip-rule="evenodd" d="M3.50422 10.8459C4.55767 10.8459 5.41167 9.99192 5.41167 8.93847C5.41167 7.88502 4.55767 7.03102 3.50422 7.03102C2.45077 7.03102 1.59677 7.88502 1.59677 8.93847C1.59677 9.99192 2.45077 10.8459 3.50422 10.8459ZM3.50422 11.6634C5.00915 11.6634 6.22914 10.4434 6.22914 8.93847C6.22914 7.43354 5.00915 6.21355 3.50422 6.21355C1.99929 6.21355 0.779297 7.43354 0.779297 8.93847C0.779297 10.4434 1.99929 11.6634 3.50422 11.6634Z" fill="black"/>
<path d="M11.1342 4.5786L5.68433 7.84851" stroke="black" stroke-width="1.08997"/>
<path d="M5.68412 10.0284L11.679 13.2984" stroke="black" stroke-width="1.08997"/>
</g>
<defs>
<clipPath id="clip0_75_161">
<rect width="15.2596" height="16.3495" fill="white" transform="translate(0.779297 0.763702)"/>
</clipPath>
</defs>
</svg>
