<?xml version="1.0" standalone="no"?>
<!DOCTYPE svg PUBLIC "-//W3C//DTD SVG 1.1//EN" "http://www.w3.org/Graphics/SVG/1.1/DTD/svg11.dtd" >
<svg xmlns="http://www.w3.org/2000/svg">
<metadata>Generated by IcoMoon</metadata>
<defs>
<font id="icomoon" horiz-adv-x="1024">
<font-face units-per-em="1024" ascent="960" descent="-64" />
<missing-glyph horiz-adv-x="1024" />
<glyph unicode="&#x20;" horiz-adv-x="512" d="" />
<glyph unicode="&#xe901;" glyph-name="backarrow" d="M0 471.152c0-7.699 4.617-18.077 9.234-23.098l263.832-284.536c12.367-12.888 32.319-14.395 46.665-1.341 12.862 11.717 13.192 34.645 1.319 47.367l-211.726 228.132h847.066c18.139 0 32.983 15.064 32.983 33.475s-14.843 33.475-32.983 33.475h-847.066l211.726 228.132c11.873 12.721 11.048 34.982-1.319 47.368-13.027 13.055-34.463 11.883-46.666-1.339l-263.832-284.537c-7.75-7.7-9.069-15.231-9.234-23.098z" />
<glyph unicode="&#xe902;" glyph-name="calender" d="M172.256-9.025c-25.031 0-46.467 8.922-64.307 26.761-17.84 17.845-26.745 39.267-26.715 64.266v637.154c0 25.031 8.92 46.466 26.76 64.307s39.261 26.745 64.262 26.715h45.511v46.649c0 12.895 4.369 23.514 13.107 31.858s19.539 12.515 32.404 12.515c12.895 0 23.711-4.369 32.449-13.107s13.092-19.539 13.062-32.403v-45.511h364.089v46.649c0 12.895 4.369 23.514 13.107 31.858s19.539 12.515 32.403 12.515c12.895 0 23.712-4.369 32.45-13.107s13.093-19.539 13.059-32.403v-45.511h45.513c25.033 0 46.469-8.92 64.307-26.761s26.747-39.261 26.713-64.261v-637.154c0-25.033-8.916-46.469-26.761-64.307-17.838-17.845-39.26-26.747-64.259-26.72h-637.155zM172.256 82.002h637.155v455.109h-637.155v-455.109z" />
<glyph unicode="&#xe903;" glyph-name="cam" d="M972.375 751.705c-3.615 2.085-7.711 3.183-11.884 3.183-4.168 0-8.264-1.098-11.878-3.183l-250.189-124.262v56.548c0 31.507-12.513 61.723-34.79 84.002-22.282 22.279-52.495 34.795-84.004 34.795h-427.671c-31.507 0-61.723-12.516-84.002-34.795s-34.795-52.495-34.795-84.002v-427.668c0-31.508 12.516-61.727 34.795-84.004s52.495-34.796 84.002-34.796h427.671c31.508 0 61.722 12.518 84.004 34.796 22.277 22.277 34.79 52.495 34.79 84.004v56.545l250.665-125.215c3.308-1.695 6.973-2.591 10.691-2.611 4.449-0.015 8.812 1.219 12.595 3.564 3.42 2.14 6.246 5.12 8.197 8.653 1.956 3.533 2.975 7.506 2.97 11.546v522.705c0.005 4.038-1.014 8.011-2.97 11.545-1.951 3.533-4.777 6.511-8.197 8.651z" />
<glyph unicode="&#xe904;" glyph-name="cam-heart" d="M520.82 531.432c-11.344 23.28-44.019 42.326-82.028 31.237-18.163-5.246-34.009-16.497-44.95-31.914-10.942 15.417-26.788 26.668-44.95 31.914-38.094 10.92-70.685-7.957-82.029-31.237-15.915-32.591-9.312-69.246 19.639-108.948 22.687-31.067 55.109-62.558 102.176-99.126 1.487-1.162 3.32-1.79 5.206-1.79s3.718 0.628 5.206 1.79c46.983 36.483 79.488 67.72 102.177 99.126 28.868 39.702 35.47 76.357 19.554 108.948zM776.864 715.824c0 29.928-24.487 54.415-54.414 54.415h-652.986c-29.928 0-54.415-24.487-54.415-54.415v-544.157c0-29.928 24.487-54.414 54.415-54.414h652.986c29.928 0 54.414 24.487 54.414 54.414v190.456l217.662-217.664v598.572l-217.662-217.662v190.454zM668.035 226.086h-544.155v435.322h544.155v-435.322z" />
<glyph unicode="&#xe905;" glyph-name="cart" d="M53.942 826.671c-10.446 0-20.463-4.149-27.849-11.536s-11.535-17.404-11.535-27.849c0-10.445 4.149-20.463 11.535-27.849s17.404-11.536 27.849-11.536h87.434l103.345-413.538c8.783-35.052 40.172-59.077 76.288-59.077h491.125c35.564 0 65.772 23.631 75.106 57.895l102.085 375.335h-82.471l-94.759-354.462h-491.125l-103.306 413.538c-4.267 16.966-14.105 32.009-27.936 42.72s-30.858 16.471-48.352 16.357h-87.434zM762.864 275.287c-64.788 0-118.154-53.366-118.154-118.154s53.366-118.154 118.154-118.154c64.788 0 118.154 53.366 118.154 118.154s-53.366 118.154-118.154 118.154zM408.403 275.287c-64.787 0-118.153-53.366-118.153-118.154s53.366-118.154 118.153-118.154c64.788 0 118.154 53.366 118.154 118.154s-53.366 118.154-118.154 118.154zM526.557 826.671v-196.923h-118.154l157.538-157.538 157.538 157.538h-118.154v196.923h-78.769zM408.403 196.517c22.213 0 39.385-17.172 39.385-39.385s-17.172-39.385-39.385-39.385c-22.212 0-39.383 17.172-39.383 39.385s17.172 39.385 39.383 39.385zM762.864 196.517c22.213 0 39.385-17.172 39.385-39.385s-17.172-39.385-39.385-39.385c-22.213 0-39.385 17.172-39.385 39.385s17.172 39.385 39.385 39.385z" />
<glyph unicode="&#xe906;" glyph-name="chat2" d="M20.64 408.367c-0.401 125.025-0.2 250.051-0.2 375.278 0 43.879 34.262 82.75 78.342 88.56 8.416 1.202 17.031 2.004 25.647 2.004 202.967 0 406.136 0 609.302 0 44.681 0 85.756-30.054 92.966-77.34 0.802-5.811 1.805-11.822 1.805-17.632 0.201-123.423 0.201-246.846 0-370.268 0-42.278-33.058-80.346-73.933-86.959-7.415-1.203-15.027-2.005-22.643-2.005-132.838-0.201-383.693-0.201-516.533 0-7.614 0-13.224-2.001-18.033-7.812-18.634-22.242-37.468-44.279-56.302-66.321-14.627-17.028-29.654-33.66-44.48-50.692-7.413-8.614-13.825-18.031-25.847-21.837-25.446-7.817-50.492 9.617-50.492 36.463 0 33.263 0 65.92 0 98.581l0.401 99.981zM71.933 251.482c1.002-0.602 2.004-1.404 3.005-2.001 2.605 3.405 5.21 6.81 8.015 10.018 11.821 13.824 23.643 27.447 35.264 41.271 14.426 17.033 28.852 34.261 43.278 51.294 10.619 12.425 22.040 20.437 40.473 20.237 137.649-0.802 393.714-0.201 531.361-0.802 22.639 0 43.878 21.039 43.878 43.678-0.602 119.618-0.602 239.435 0 359.051 0.201 30.655-20.036 48.087-48.486 48.087-202.769-0.201-405.534 0-608.1 0-2.004 0-4.007 0.2-6.011 0-24.244-2.004-42.677-19.636-42.477-43.88 0.401-121.42 0.2-242.639 0.2-364.056l-0.401-162.897zM971.162 265.301c0 85.355 0 170.709 0 256.064 0 35.063 0 70.127 0 104.99 0 23.042-17.835 44.080-42.078 44.080-16.030 0-26.249 11.421-26.048 27.249 0.201 13.825 11.622 23.643 26.85 24.444 43.277 2.004 85.355-33.861 90.965-76.739 0.998-6.813 2.001-13.625 2.001-20.637 0.201-120.418-0.201-240.838 0.201-361.251l-2.001-142.259c0-21.641 0-43.277 0-65.118 0-16.631-7.616-27.447-22.844-32.657-17.028-5.811-34.261-1.604-43.678 10.018-11.021 13.423-22.443 26.645-33.86 39.872-20.237 23.441-40.273 47.083-60.51 70.524-5.611 6.413-10.82 13.427-17.434 19.038-3.605 3.004-9.216 4.809-14.025 4.809-117.013 0.201-352.435 0.201-469.449 0.201-19.034 0-29.253 10.62-28.451 29.453 0.401 11.021 11.421 22.037 22.441 22.238 21.038 0.201 42.076 0 63.114 0 103.388 0 324.99-0.201 428.375 0.401 14.225 0 23.842-5.21 32.457-15.228 21.44-25.045 43.081-49.89 64.717-74.735 8.619-9.818 16.832-20.036 27.652-29.252 0 10.419 0 20.838 0 31.458l1.604 133.039zM430.182 506.349l70.127-36.867c8.815-4.607 19.034 2.805 17.429 12.623l-13.423 77.941c-0.602 3.807 0.602 7.814 3.405 10.619l56.704 55.3c7.215 7.013 3.204 19.034-6.613 20.437l-78.34 11.421c-4.006 0.601-7.215 3.005-9.015 6.612l-35.063 70.928c-4.407 9.016-17.232 9.016-21.64 0l-34.863-70.928c-1.803-3.606-5.209-6.011-9.016-6.612l-78.342-11.421c-9.818-1.403-13.825-13.625-6.612-20.437l56.703-55.3c2.805-2.805 4.208-6.812 3.406-10.619l-13.424-77.941c-1.603-9.818 8.616-17.23 17.431-12.623l70.127 36.867c3.406 1.803 7.616 1.803 11.020 0z" />
<glyph unicode="&#xe907;" glyph-name="clock" d="M532.115 34.832c-87.742 0-171.889 34.855-233.933 96.894-62.043 62.045-96.898 146.193-96.898 233.934s34.855 171.89 96.898 233.933c62.043 62.043 146.191 96.898 233.933 96.898s171.89-34.855 233.933-96.898c62.045-62.043 96.9-146.191 96.9-233.933s-34.855-171.889-96.9-233.934c-62.043-62.039-146.191-96.894-233.933-96.894zM532.115 791.014c-112.811 0-221.001-44.813-300.771-124.583s-124.583-187.96-124.583-300.771c0-112.811 44.814-221 124.583-300.77s187.96-124.581 300.771-124.581c112.811 0 221.001 44.812 300.767 124.581 79.77 79.77 124.589 187.959 124.589 300.77s-44.82 221.001-124.589 300.771c-79.766 79.77-187.956 124.583-300.767 124.583zM555.746 601.968h-70.892v-283.569l224.492-134.695 35.446 58.132-189.046 112.010v248.123zM337.398 819.844l-60.495 72.31-217.403-181.957 60.967-72.31 216.93 181.957zM1004.733 709.724l-217.405 182.43-60.967-72.31 217.405-182.43 60.967 72.31z" />
<glyph unicode="&#xe908;" d="M948.712-63.319c30.007 0 54.343 24.332 54.343 54.343v875.932c0 30.015-24.336 54.342-54.343 54.342h-875.928c-30.019 0-54.342-24.327-54.342-54.342v-875.932c0-30.011 24.323-54.343 54.342-54.343h875.928z" />
<glyph unicode="&#xe909;" d="M697.801-63.319v381.294h127.988l19.165 148.598h-147.153v94.878c0 43.021 11.953 72.34 73.649 72.34l78.687 0.035v132.903c-13.615 1.812-60.321 5.858-114.66 5.858-113.455 0-191.122-69.25-191.122-196.426v-109.587h-128.315v-148.598h128.315v-381.294h153.446z" />
<glyph unicode="&#xe90a;" glyph-name="fbicon" d="M559.238-63.59c-82.827-0.416-149.974 66.901-149.974 149.729 0 96.556 0 192.754 0 289.377 0 11.596-9.004 21.606-20.599 21.606-44.214 0-88.427 0.49-132.891-0.244-12.561 0-17.082 4.162-16.831 16.646 0.502 45.288 0.754 90.576 0 135.864-0.251 12.73 4.271 16.402 17.082 16.157 45.972-0.735 91.692 0 137.664-0.489 12.059-0.244 16.077 3.183 15.826 15.423-0.502 52.142-2.009 104.529 0.502 156.427 3.517 72.95 28.136 137.333 90.939 182.866 35.17 25.459 75.615 39.413 118.823 40.147 50.745 0.734 101.238-3.672 151.983-6.12 9.044-0.49 13.314-4.406 13.314-14.198-0.251-49.939-0.251-100.124 0-150.063 0-11.261-5.526-12.974-15.324-12.974-34.416 0.244-68.832 0.489-103.248 0-11.304-0.245-22.86-1.224-34.165-3.672-31.401-7.1-49.489-29.377-50.493-64.138-1.005-43.575-0.251-87.394-0.754-130.968-0.251-11.751 6.281-12.73 15.575-12.73 52.503 0.245 105.006 0 157.258 0 11.62 0 20.501-10.364 18.704-21.844-2.778-17.747-5.466-34.732-8.153-51.841-4.020-25.214-9.044-50.184-12.31-75.398-2.009-13.954-7.285-19.829-22.86-19.339-41.45 1.224-82.9 0.489-124.601 0.489-23.363 0-23.363 0-23.363-22.032 0-139.045 0-277.851 0-416.897 0-21.784 0-21.784-22.106-21.784z" />
<glyph unicode="&#xe90c;" glyph-name="heart" d="M508.467 32.461l-16.311 13.295c-355.525 290.116-451.732 392.362-451.732 558.338 0 136.328 110.86 247.441 246.877 247.441 113.624 0 178.039-64.839 221.166-113.33 43.127 48.768 107.543 113.33 221.167 113.33 136.016 0 246.875-111.113 246.875-247.441 0-165.977-96.205-268.223-451.731-558.338l-16.311-13.295zM287.301 799.996c-107.819 0-195.456-87.838-195.456-195.902 0-142.147 89.296-237.189 416.622-505.136 327.327 267.947 416.62 362.989 416.62 505.136 0 108.064-87.637 195.902-195.453 195.902-98.167 0-149.561-58.387-190.917-105.365-0.223-0.254-0.446-0.507-0.669-0.76l-29.581-33.251-29.581 33.251c-41.469 47.382-92.89 106.125-191.585 106.125zM492.156 45.756l16.311-13.295 16.311 13.295c355.526 290.116 451.731 392.362 451.731 558.338 0 136.328-110.859 247.441-246.875 247.441-113.624 0-178.039-64.562-221.167-113.33-43.127 48.491-107.542 113.33-221.166 113.33-136.017 0-246.877-111.113-246.877-247.441 0-165.977 96.208-268.223 451.732-558.338zM91.845 604.094c0 108.064 87.637 195.902 195.456 195.902 98.695 0 150.117-58.743 191.585-106.125l29.581-33.251 30.25 34.011c41.356 46.978 92.749 105.365 190.917 105.365 107.816 0 195.453-87.838 195.453-195.902 0-142.147-89.293-237.189-416.62-505.136-327.326 267.947-416.622 362.989-416.622 505.136z" />
<glyph unicode="&#xe90d;" glyph-name="ico-chat" d="M10.922 404.399c-0.401 125.027-0.2 250.052-0.2 375.277 0 43.879 34.262 82.749 78.341 88.56 8.415 1.202 17.031 2.004 25.646 2.004 202.966 0 406.132 0 609.298 0 44.681 0 85.756-30.054 92.966-77.339 0.802-5.81 1.805-11.821 1.805-17.632 0.201-123.422 0.201-246.845 0-370.268 0-42.274-33.058-80.346-73.933-86.955-7.415-1.203-15.027-2.005-22.643-2.005-132.838-0.201-383.69-0.201-516.529 0-7.614 0-13.224-2.005-18.033-7.812-18.633-22.242-37.467-44.279-56.301-66.321-14.627-17.033-29.653-33.66-44.48-50.692-7.413-8.614-13.825-18.031-25.847-21.837-25.446-7.817-50.491 9.617-50.491 36.463 0 33.263 0 65.92 0 98.577l0.401 99.981zM62.214 247.518c1.002-0.602 2.004-1.404 3.005-2.005 2.605 3.409 5.21 6.814 8.015 10.018 11.821 13.824 23.642 27.452 35.264 41.276 14.426 17.028 28.852 34.261 43.278 51.294 10.619 12.42 22.039 20.433 40.473 20.237 137.648-0.802 393.71-0.201 531.357-0.802 22.643 0 43.878 21.035 43.878 43.678-0.602 119.615-0.602 239.431 0 359.046 0.201 30.656-20.036 48.087-48.486 48.087-202.765-0.201-405.53 0-608.096 0-2.004 0-4.007 0.2-6.011 0-24.244-2.004-42.677-19.636-42.476-43.879 0.401-121.419 0.2-242.637 0.2-364.056l-0.401-162.893zM961.438 261.338c0 85.35 0 170.705 0 256.060 0 35.063 0 70.127 0 104.989 0 23.042-17.83 44.079-42.074 44.079-16.030 0-26.249 11.421-26.048 27.249 0.201 13.825 11.622 23.642 26.85 24.444 43.277 2.004 85.355-33.861 90.961-76.738 1.003-6.812 2.005-13.625 2.005-20.637 0.201-120.417-0.201-240.833 0.201-361.251l-2.005-142.255c0-21.641 0-43.281 0-65.118 0-16.631-7.612-27.452-22.839-32.661-17.033-5.807-34.261-1.6-43.678 10.018-11.021 13.427-22.443 26.65-33.86 39.872-20.237 23.445-40.273 47.087-60.51 70.528-5.611 6.413-10.82 13.423-17.434 19.034-3.605 3.008-9.216 4.809-14.025 4.809-117.009 0.201-352.435 0.201-469.446 0.201-19.034 0-29.253 10.62-28.451 29.453 0.401 11.021 11.421 22.042 22.441 22.242 21.038 0.201 42.076 0 63.114 0 103.385 0 324.987-0.201 428.372 0.401 14.225 0 23.842-5.21 32.457-15.228 21.44-25.045 43.081-49.89 64.717-74.735 8.619-9.818 16.832-20.036 27.652-29.252 0 10.419 0 20.838 0 31.454l1.6 133.043zM420.46 502.368l70.126-36.867c8.815-4.608 19.034 2.803 17.434 12.623l-13.427 77.94c-0.602 3.807 0.602 7.814 3.409 10.619l56.7 55.3c7.215 7.013 3.209 19.034-6.609 20.437l-78.345 11.421c-4.006 0.601-7.211 3.005-9.015 6.612l-35.063 70.928c-4.408 9.016-17.231 9.016-21.639 0l-34.863-70.928c-1.804-3.606-5.21-6.011-9.016-6.612l-78.341-11.421c-9.818-1.403-13.825-13.625-6.612-20.437l56.702-55.3c2.805-2.805 4.207-6.812 3.406-10.619l-13.424-77.94c-1.603-9.82 8.615-17.231 17.431-12.623l70.126 36.867c3.407 1.803 7.614 1.803 11.020 0z" />
<glyph unicode="&#xe90e;" glyph-name="ico-fanbyte" d="M700.221 758.642h-9.863c-33.541 0-61.159-21.7-71.023-53.265l-501.088-161.769c-5.918 21.7-27.619 37.482-51.293 37.482h-7.891c-29.593 0-55.237-25.647-55.237-55.237v-144.006c0-31.562 25.646-57.209 55.237-57.209h5.919c25.646 0 47.346 15.78 53.265 39.454l159.795-67.075v-45.39c0.171-12.503 5.215-24.447 14.058-33.29s20.787-13.887 33.291-14.055h112.448c11.839 0 21.699 5.916 29.594 13.807l151.902-63.128c4.839-14.448 14.125-27.001 26.525-35.857 12.4-8.859 27.285-13.57 42.522-13.464h9.863c9.84-0.003 19.585 1.929 28.679 5.691s17.355 9.279 24.318 16.232c6.96 6.957 12.483 15.215 16.252 24.302 3.772 9.090 5.715 18.835 5.718 28.675v503.134c0 41.43-33.538 74.967-72.991 74.967zM122.194 502.178l493.197 159.791v-461.635l-493.197 207.159v94.686zM66.954 364.082h-7.891c-7.891 0-15.781 7.895-15.781 15.786v144.012c0 9.865 7.891 17.756 15.781 17.756h5.919c9.863 0 17.755-7.891 17.755-15.783v-145.995c0-7.881-7.893-15.776-15.783-15.776zM327.363 245.717c-2.047 0.139-3.974 1.014-5.425 2.468-1.451 1.45-2.327 3.376-2.466 5.424v27.618l86.802-35.51h-78.911zM733.759 180.614c0.017-4.644-0.879-9.246-2.636-13.543-1.761-4.297-4.35-8.209-7.617-11.505-3.27-3.297-7.158-5.919-11.442-7.713-4.281-1.794-8.876-2.728-13.52-2.748h-10.161c-9.378-0.040-18.386 3.65-25.045 10.253s-10.425 15.581-10.465 24.959v503.359c-0.040 9.377 3.647 18.386 10.25 25.046s15.578 10.424 24.956 10.466h10.161c4.644 0.019 9.246-0.876 13.543-2.636s8.209-4.348 11.505-7.618c3.297-3.27 5.919-7.158 7.713-11.441 1.797-4.283 2.728-8.878 2.748-13.522v-503.355h0.010zM970.494 442.996h-138.098c-11.835 0-19.727-7.891-19.727-19.73 0-11.835 7.891-19.724 19.727-19.724h138.098c11.835 0 19.724 7.888 19.724 19.724s-7.888 19.73-19.724 19.73zM828.452 515.989c2.593-0.073 5.17 0.419 7.554 1.441s4.519 2.55 6.253 4.478l104.56 104.558c7.891 7.891 5.916 21.7-1.972 27.619-3.657 2.875-8.172 4.439-12.823 4.439s-9.17-1.563-12.823-4.439l-104.56-104.558c-3.663-3.488-5.791-8.288-5.913-13.344-0.126-5.056 1.767-9.954 5.255-13.617 0.215-0.224 0.433-0.443 0.657-0.658 1.734-1.928 3.868-3.456 6.253-4.478s4.965-1.514 7.558-1.441zM842.26 322.656c-7.888 7.891-21.699 5.919-27.618-1.972-2.874-3.657-4.44-8.172-4.44-12.823s1.566-9.166 4.44-12.823l104.56-104.56c7.888-7.888 21.699-5.916 27.618 1.972 2.874 3.657 4.44 8.172 4.44 12.826 0 4.651-1.566 9.166-4.44 12.823l-104.56 104.557zM916.688 656.984l-104.752-104.751c-0.225-0.218-0.446-0.438-0.661-0.662-4.205-4.38-6.497-10.251-6.372-16.321 0.122-6.070 2.652-11.842 7.033-16.047 2.114-2.269 4.667-4.078 7.508-5.316 2.844-1.237 5.909-1.876 9.008-1.876s6.164 0.639 9.008 1.876c2.841 1.237 5.397 3.047 7.508 5.316l104.557 104.558c2.246 2.308 3.951 5.085 4.994 8.131s1.397 6.286 1.041 9.485c-0.248 3.066-1.12 6.048-2.57 8.761-1.447 2.713-3.439 5.099-5.85 7.008-4.317 3.372-9.639 5.204-15.119 5.204-5.477 0-10.798-1.832-15.116-5.204l-0.218-0.163zM811.738 292.524l104.752-104.752c2.309-2.243 5.087-3.951 8.133-4.994s6.286-1.397 9.487-1.041c3.065 0.248 6.045 1.12 8.76 2.57 2.712 1.447 5.097 3.439 7.009 5.85 3.369 4.317 5.203 9.639 5.203 15.119 0 5.477-1.833 10.798-5.203 15.119l-104.917 104.967c-2.309 2.246-5.087 3.951-8.133 4.994s-6.286 1.401-9.487 1.041c-3.065-0.244-6.048-1.116-8.76-2.567-2.712-1.447-5.097-3.439-7.006-5.85-3.373-4.317-5.203-9.639-5.203-15.119s1.83-10.802 5.203-15.119l0.162-0.218zM690.358 762.468c-34.631 0-63.22-22.010-74.048-54.050l-495.578-159.986c-7.771 21.481-29.909 36.485-53.776 36.485h-7.891c-31.704 0-59.064-27.358-59.064-59.064v-144.006c0-33.597 27.273-61.044 59.064-61.044h5.918c25.676 0 47.929 14.954 55.73 38.099l153.505-64.436v-42.83c0.171-13.52 5.617-26.439 15.177-35.999s22.478-15.007 35.997-15.175h112.438c12.245 0 22.402 5.691 30.439 13.14l148.001-61.509c5.348-14.805 15.152-27.589 28.064-36.59 12.912-9.005 28.299-13.784 44.039-13.679h9.939c10.342 0.003 20.582 2.045 30.139 6.005 9.553 3.961 18.234 9.768 25.544 17.084s13.107 16.001 17.064 25.557c3.954 9.556 5.985 19.8 5.982 30.142v503.062c0 43.476-35.186 78.792-76.82 78.792h-9.863zM619.335 705.378c9.863 31.565 37.485 53.265 71.023 53.265h9.863c39.454 0 72.991-33.537 72.991-74.967v-503.062c0.007-9.84-1.929-19.585-5.691-28.679-3.762-9.090-9.279-17.355-16.232-24.315-6.957-6.963-15.215-12.486-24.305-16.255-9.087-3.769-18.832-5.711-28.672-5.715h-9.929c-15.238-0.109-30.122 4.605-42.522 13.461-12.4 8.859-21.682 21.408-26.525 35.86l-151.902 63.128c-7.891-7.891-17.755-13.811-29.594-13.811h-112.448c-12.503 0.172-24.446 5.212-33.289 14.052-8.843 8.843-13.887 20.784-14.060 33.287v45.383l-159.795 67.075c-0.314-1.255-0.672-2.487-1.074-3.7-7.157-21.603-27.905-35.754-52.192-35.754h-5.918c-29.593 0-55.237 25.646-55.237 57.209v144.013c0 29.593 25.646 55.237 55.237 55.237h7.891c22.326 0 42.897-14.036 50.132-33.835 0.437-1.193 0.824-2.408 1.161-3.646l501.087 161.769zM126.019 499.397l485.546 157.318v-450.617l-485.546 203.931v89.368zM122.194 407.493l493.197-207.159v461.636l-493.197-159.791v-94.686zM59.064 367.91v-0.007c-3.078 0.277-5.96 1.625-8.145 3.809-2.185 2.187-3.534 5.070-3.811 8.146v144.023c0 8.044 6.461 13.928 11.956 13.928h5.918c8.044 0 13.929-6.461 13.929-11.956v-145.985c-0.277-3.079-1.626-5.962-3.811-8.146-2.185-2.187-5.068-3.534-8.145-3.812h-7.891zM324.644 250.89c0.705-0.776 1.676-1.255 2.72-1.348h59.454l-63.52 25.986v-21.914c0.088-1.047 0.568-2.022 1.346-2.725zM319.475 281.227l86.802-35.51h-78.913c-2.047 0.139-3.975 1.017-5.426 2.468s-2.327 3.376-2.465 5.424l0.002 27.618zM698.249 148.933h-10.161c-4.139 0.020-8.238 0.852-12.057 2.458-3.819 1.602-7.284 3.941-10.197 6.884-2.917 2.94-5.222 6.428-6.788 10.26-1.569 3.835-2.365 7.938-2.345 12.080v503.36c0.020 4.141 0.856 8.238 2.458 12.057s3.941 7.284 6.884 10.198c2.943 2.914 6.431 5.221 10.263 6.787 3.835 1.567 7.938 2.363 12.080 2.343h10.161c4.142-0.019 8.238-0.855 12.057-2.457s7.284-3.942 10.197-6.885c2.917-2.942 5.222-6.429 6.788-10.263 1.569-3.834 2.365-7.938 2.345-12.080v-503.359c-0.020-4.139-0.856-8.235-2.458-12.053-1.605-3.819-3.944-7.287-6.884-10.2-2.943-2.913-6.431-5.219-10.263-6.788-3.835-1.566-7.941-2.362-12.080-2.342zM832.4 446.821h-0.003c-0.479 0.017-0.955 0.017-1.434 0-6.246-0.192-12.159-2.857-16.44-7.409-4.278-4.552-6.577-10.617-6.385-16.86 0.188-6.246 2.851-12.159 7.403-16.443 4.549-4.281 10.613-6.58 16.856-6.395h138.098c0.482-0.013 0.958-0.013 1.437 0 6.246 0.195 12.156 2.861 16.437 7.409 4.281 4.552 6.58 10.617 6.388 16.863s-2.854 12.159-7.403 16.44c-4.549 4.284-10.613 6.583-16.86 6.395h-138.095zM919.202 654.085c3.657 2.875 8.172 4.439 12.823 4.439s9.17-1.563 12.823-4.439c7.891-5.919 9.863-19.728 1.972-27.619l-104.557-104.558c-3.492-3.662-8.291-5.789-13.348-5.912s-9.956 1.768-13.616 5.256c-0.225 0.213-0.446 0.431-0.657 0.656-3.663 3.488-5.791 8.288-5.913 13.344s1.767 9.954 5.255 13.617c0.215 0.224 0.433 0.443 0.657 0.658l104.56 104.558zM814.645 295.034c-2.877 3.657-4.44 8.172-4.44 12.823s1.562 9.166 4.44 12.823c5.919 7.891 19.727 9.863 27.618 1.972l104.557-104.557c2.877-3.657 4.44-8.172 4.44-12.823s-1.562-9.166-4.44-12.823c-5.916-7.891-19.727-9.863-27.618-1.972l-104.557 104.557zM59.064 364.085h7.891c7.891 0 15.783 7.891 15.783 15.783v145.985c0 7.893-7.893 15.783-17.756 15.783h-5.918c-7.891 0-15.781-7.891-15.781-17.755v-144.023c0-7.881 7.891-15.773 15.781-15.773zM698.246 145.104c4.644-0.020 9.246 0.875 13.543 2.636 4.297 1.757 8.209 4.347 11.505 7.617 3.3 3.27 5.919 7.158 7.716 11.439 1.794 4.284 2.728 8.879 2.748 13.52v503.359c0.020 4.644-0.879 9.247-2.636 13.545-1.761 4.298-4.35 8.208-7.617 11.505-3.273 3.298-7.158 5.919-11.442 7.714s-8.879 2.729-13.523 2.748h-10.157c-4.644 0.019-9.246-0.876-13.543-2.635s-8.205-4.348-11.505-7.618c-3.297-3.27-5.916-7.157-7.713-11.44-1.794-4.283-2.728-8.878-2.748-13.521v-503.358c-0.040-9.378 3.647-18.386 10.25-25.045s15.578-10.422 24.956-10.465h10.167zM832.396 442.996h138.098c11.835 0 19.727-7.891 19.727-19.727 0-11.839-7.891-19.727-19.727-19.727h-138.098c-11.835 0-19.727 7.891-19.727 19.727 0 11.832 7.891 19.727 19.727 19.727z" />
<glyph unicode="&#xe90f;" glyph-name="ico-gallery" d="M890.132 837.76h-774.476c-63.878 0-115.656-51.5-115.656-115.036v-557.619c0-63.338 51.777-115.039 115.656-115.039h774.677c63.677 0 115.653 51.503 115.653 115.039v558.408c-0.197 62.944-51.976 114.247-115.854 114.247zM115.656 793.758h774.677c38.88 0 70.621-31.571 70.621-70.245v-557.621c0-38.672-31.74-70.242-70.621-70.242h-774.677c-38.882 0-70.623 31.571-70.623 70.242v557.621c0 38.674 31.542 70.245 70.623 70.245zM186.674 210.298c5.158-3.159 11.506-3.946 17.656-2.371 5.951 1.579 11.109 5.526 13.887 10.657l164.259 282.164 119.426-205.801c3.966-7.302 11.307-11.642 19.637-11.642 8.732-0.595 15.474 3.155 20.039 11.445l69.829 119.966 113.869-196.131c3.97-7.105 11.705-11.642 20.039-11.642 4.762 0 8.728 1.185 11.902 3.356 10.713 6.707 14.285 20.519 7.936 30.976l-132.517 231.85c-3.97 7.301-11.508 11.642-19.838 11.642-8.334 0-15.872-4.341-19.838-11.444l-69.833-119.971-119.422 205.409c-0.992 1.776-2.383 3.157-3.97 4.736s-3.371 2.762-5.553 4.341l-1.588 0.789c-3.571 1.579-7.34 1.579-9.522 1.579-3.174 0-6.547-0.789-9.721-2.368-2.976-0.987-5.356-2.96-7.142-5.328-1.587-1.579-2.777-2.96-3.769-4.538l-184.097-316.299c-3.174-5.132-3.968-11.642-2.38-17.562s5.555-10.854 10.713-13.812zM738.769 498.171c50.586 0 91.849 41.042 91.849 91.358s-41.263 91.358-91.849 91.358c-50.586 0-91.849-41.042-91.849-91.358s41.263-91.358 91.849-91.358zM693.142 589.529c0 25.059 20.433 45.383 45.627 45.383s45.43-20.324 45.627-45.186c-0.595-25.060-21.027-45.383-45.627-45.383-25.194-0.197-45.627 20.126-45.627 45.186z" />
<glyph unicode="&#xe910;" glyph-name="ico-home" d="M477.284 922.913c12.514 10.195 30.468 10.195 42.981 0l453.598-369.599c7.929-6.46 12.532-16.146 12.532-26.373v-537.6c0-18.788-15.233-34.021-34.021-34.021h-907.199c-18.789 0-34.020 15.233-34.020 34.021v537.6c0 10.228 4.602 19.913 12.53 26.373l453.599 369.599zM79.195 510.777v-487.415h839.158v487.415l-419.577 341.879-419.581-341.879z" />
<glyph unicode="&#xe911;" glyph-name="ico-video" d="M989.64 735.615c-18.343 8.955-40.352 7.734-59.306-3.46l-0.406-0.203-226.010-162.821v132.495c0 40.502-33.016 73.269-73.368 73.269h-557.183c-40.352 0-73.367-32.971-73.367-73.269v-514.105c0-40.504 33.015-73.272 73.367-73.272h556.978c39.335 0 71.535 32.157 73.368 73.067v130.662l225.809-160.58c9.576-7.531 20.582-11.195 33.828-11.195 9.579 0 18.954 2.035 26.29 5.698 18.749 9.361 31.995 30.327 31.995 50.883v481.948c0 22.184-12.635 42.13-31.995 50.881zM975.783 684.733v-480.525c0-4.681-2.038-8.344-5.298-9.16l-0.816-0.201-0.816-0.41c-2.038-1.017-4.076-1.625-5.909-1.625-2.038 0-3.67 0.608-5.097 2.035l-0.611 0.611-253.523 179.306v136.972l253.116 181.138c3.055 2.035 7.541 3.664 12.43 1.221 5.708-2.646 6.524-6.309 6.524-9.362zM73.367 729.102h556.978c15.083 0 27.513-12.415 27.513-27.476v-514.105c0-15.268-12.43-27.476-27.513-27.476h-556.978c-15.081 0-27.513 12.414-27.513 27.476v514.105c0 15.061 12.432 27.476 27.513 27.476z" />
<glyph unicode="&#xe912;" glyph-name="instaicon" d="M708.493 960h-392.988c-174.269 0-315.505-141.247-315.505-315.528v-393.022c0-174.202 141.236-315.45 315.505-315.45h392.988c174.272 0 315.507 141.248 315.507 315.45v393.022c0 174.282-141.235 315.528-315.507 315.528zM925.677 289.197c0-140.864-114.15-254.944-254.918-254.944h-317.514c-140.851 0-254.92 114.080-254.92 254.944v317.609c0 140.784 114.147 254.939 254.92 254.939h317.59c140.768 0 254.918-114.232 254.918-254.939v-317.609h-0.077zM525.738 715.943c-149.031 0-269.738-120.716-269.738-269.681 0-148.886 120.784-269.757 269.738-269.757 148.957 0 269.738 120.794 269.738 269.757-0.077 148.965-120.781 269.681-269.738 269.681zM525.738 283.942c-89.681 0-162.305 72.709-162.305 162.243 0 89.688 72.625 162.318 162.305 162.318 89.604 0 162.23-72.63 162.23-162.318 0-89.61-72.627-162.243-162.23-162.243zM845.331 720.112c0-37.898-30.79-68.617-68.608-68.617-37.894 0-68.538 30.719-68.538 68.617s30.72 68.616 68.538 68.616c37.894 0 68.608-30.719 68.608-68.616z" />
<glyph unicode="&#xe913;" glyph-name="lock" d="M860.381 428.487c0 74.965-51.216 140.413-124.072 158.46v103.524c0.197 134.86-109.38 244.334-244.569 244.334-134.989 0-244.569-109.276-244.569-244.334v-103.524c-72.855-18.246-124.071-83.692-124.071-158.657v-320.291c0-90.436 73.252-163.619 163.774-163.619h409.929c90.522 0 163.774 73.183 163.774 163.619v320.487h-0.197zM491.74 884.63c107.198-0.199 194.148-87.064 194.148-194.158v-98.566h-388.294v98.566c0 107.094 86.949 193.96 194.146 194.158zM810.156 107.999c0-62.472-50.819-113.242-113.353-113.242h-409.929c-62.532 0-113.351 50.77-113.351 113.242v320.487c0 62.472 50.819 113.242 113.351 113.242h409.929c62.534 0 113.353-50.77 113.353-113.242v-320.487zM491.734 355.901c-49.033 0-88.934-39.862-88.934-88.846 0-39.268 26.006-73.974 63.723-85.082v-85.676c0-13.881 11.315-25.186 25.211-25.186s25.211 11.305 25.211 25.186v85.676c47.049 13.881 74.046 63.267 59.952 110.465-11.117 37.482-45.659 63.463-85.163 63.463zM491.734 228.577c-21.241 0-38.512 17.256-38.512 38.478 0 21.217 17.271 38.474 38.512 38.474s38.512-17.256 38.512-38.474c0-21.221-17.271-38.478-38.512-38.478z" />
<glyph unicode="&#xe914;" glyph-name="note" d="M72.453 31.227h191.569v-67.73h178.772l67.729 67.73h315.606c12.8 0 23.43 10.435 23.43 23.425v315.611l77.18 77.175-76 76.983v382.154c0 12.798-10.435 23.43-23.43 23.43h-754.856c-12.994 0-23.429-10.435-23.429-23.43v-851.924c0-12.795 10.435-23.425 23.429-23.425zM802.899 78.082h-244.336l244.336 244.336v-244.336zM860.189 447.244l-437.084-437.087h-111.043v111.045l437.086 437.084 111.041-111.043zM96.867 882.163h707.017v-309.701l-53.75 53.75-122.661-121.478h-418.382v-47.845h370.536l-147.269-147.271h-223.268v-47.84h176.606l-121.478-120.296v-63.2h-167.352v803.88zM691.858 698.666h-482.763v-47.843h482.763v47.843z" />
<glyph unicode="&#xe915;" glyph-name="note-check" d="M132.974 897.466c16.756 16.756 39.482 26.17 63.179 26.17h470.68c12.622 0 24.652-5.357 33.093-14.738l201.719-224.134c7.359-8.175 11.429-18.785 11.429-29.783v-627.573c0-23.699-9.412-46.423-26.165-63.181-16.758-16.758-39.486-26.17-63.181-26.17h-627.575c-23.697 0-46.423 9.412-63.179 26.17-16.756 16.754-26.17 39.482-26.17 63.181v806.88c0 23.697 9.413 46.423 26.17 63.179zM196.153 834.593c-0.081 0-0.158-0.032-0.216-0.089s-0.089-0.135-0.089-0.215v-806.88c0-0.085 0.032-0.16 0.089-0.218s0.135-0.089 0.216-0.089h627.575c0.080 0 0.16 0.031 0.214 0.089 0.058 0.058 0.089 0.134 0.089 0.218v610.488l-177.023 196.697h-450.855zM717.437 487.718c19.033-15.569 21.838-43.622 6.269-62.651l-201.724-246.548c-7.52-9.194-18.403-14.999-30.226-16.126-11.824-1.131-23.608 2.511-32.733 10.115l-134.48 112.070c-18.89 15.738-21.442 43.814-5.701 62.704 15.742 18.886 43.815 21.442 62.705 5.699l99.968-83.305 173.271 211.777c15.574 19.029 43.622 21.833 62.651 6.264zM644.412 923.636c24.589 0 44.522-19.933 44.522-44.522v-179.612h179.614c24.589 0 44.522-19.933 44.522-44.522s-19.932-44.522-44.522-44.522h-224.136c-24.589 0-44.522 19.933-44.522 44.522v224.134c0 24.588 19.932 44.522 44.522 44.522z" />
<glyph unicode="&#xe916;" glyph-name="notification" d="M704.659 802.030c-37.202 0-71.533-11.959-100.112-33.755-20.97 14.081-42.955 25.075-65.781 31.634 2.872 9.837 3.887 19.674 3.887 29.318-0.169 56.516-41.261 103.387-90.808 103.387s-90.64-46.872-90.64-103.387c0-9.837 1.015-19.674 3.889-29.318-49.548-16.396-95.375-46.872-130.718-90.271-50.563-61.145-78.296-141.579-78.296-225.486v-193.656c0-1.158 0-2.124 0-2.124-38.218-9.835-66.797-48.992-66.797-95.864 0-54.392 38.218-97.988 85.906-97.988h162.172c0-3.277 0-7.52 0-10.801 0-71.751 51.578-130.582 114.485-130.582s114.485 58.831 114.485 130.582c0 3.281 0 7.524 0 10.801h162.17c47.687 0 85.909 43.596 85.909 97.988 0 46.872-28.583 86.029-66.8 95.673 0 1.158 0 1.158 0 2.119v92.587c82.018 21.798 143.066 106.665 143.066 206.775 0 117.661-83.033 212.368-186.016 212.368zM451.845 889.022c28.579 0 52.423-27.197 52.423-59.795 0-6.558-1.015-13.116-2.875-19.674-8.624 1.157-17.249 2.121-25.704 3.279-1.86 0-2.875 0-4.735 0h-38.218c-1.015 0-2.875 0-3.889 0-8.624 0-18.095-1.158-26.719-3.279-1.86 6.558-2.875 13.116-2.875 19.674 0.169 32.598 24.013 59.795 52.592 59.795zM194.297 484.152c0 72.912 23.844 142.544 67.811 194.816 46.673 57.673 113.47 90.271 182.296 90.271h16.234c39.063 0 77.282-10.801 112.624-30.476-33.311-37.998-53.436-91.428-53.436-149.101-1.015-117.469 82.015-212.175 185.172-212.175 1.861 0 2.872 0 4.733 0v-86.991h-515.433v193.656zM451.845-3.272c-41.938 0-76.267 39.157-76.267 86.991 0 3.281 0 7.524 1.015 10.801h150.673c0-3.277 1.015-7.52 1.015-10.801-0.169-47.834-34.498-86.991-76.436-86.991zM776.188 192.508c0-30.475-20.965-54.392-47.687-54.392h-553.312c-26.718 0-47.688 23.917-47.688 54.392s20.969 54.397 47.688 54.397h553.312c26.722 0.191 47.687-23.922 47.687-54.397zM704.659 421.078c-81.172 0-147.968 76.19-147.968 168.777s66.796 168.776 147.968 168.776c81.168 0 147.968-76.19 147.968-168.776 0-92.587-66.8-168.777-147.968-168.777z" />
<glyph unicode="&#xe917;" glyph-name="papper-clip" d="M680.606 726.877h69.72v-533.786c0-71.173-25.056-131.814-75.167-181.924s-110.389-75.167-180.834-75.167c-70.446 0-130.724 25.057-180.834 75.167s-75.166 110.751-75.166 181.924v579.539c0 52.289 18.156 96.59 54.468 132.902s80.25 54.468 131.813 54.468c51.564 0 95.501-18.156 131.813-54.468s54.468-80.613 54.468-132.902v-488.035c0-31.954-11.62-59.187-34.86-81.7s-50.837-33.772-82.791-33.772c-31.954 0-59.189 11.259-81.702 33.772s-33.77 49.746-33.77 81.7v442.281h69.719v-442.281c0-11.617 4.721-22.149 14.162-31.59s20.335-14.162 32.681-14.162c12.346 0 23.24 4.721 32.68 14.162s14.162 19.973 14.162 31.59v488.035c0 31.954-11.62 59.552-34.86 82.791s-50.837 34.86-82.791 34.86c-31.955 0-59.189-11.62-81.702-34.86s-33.77-50.837-33.77-82.791v-579.539c0-52.291 18.156-96.589 54.468-132.905 36.312-36.311 80.249-54.467 131.813-54.467s95.5 18.156 131.812 54.467c36.312 36.316 54.468 80.614 54.468 132.905v533.786z" />
<glyph unicode="&#xe918;" glyph-name="pin" d="M729.048 588.731v246.154h49.231c27.077 0 49.231 22.154 49.231 49.231s-22.154 49.231-49.231 49.231h-492.308c-27.077 0-49.231-22.154-49.231-49.231s22.154-49.231 49.231-49.231h49.231v-246.154c0-81.723-65.969-147.692-147.692-147.692v-98.462h293.907v-344.617l49.231-49.231 49.231 49.231v344.617h296.862v98.462c-81.723 0-147.692 65.969-147.692 147.692z" />
<glyph unicode="&#xe919;" d="M990.473 448.375c0-264.457-214.387-478.844-478.844-478.844-264.461 0-478.848 214.387-478.848 478.844 0 264.462 214.387 478.849 478.848 478.849 264.457 0 478.844-214.387 478.844-478.849z" />
<glyph unicode="&#xe91a;" d="M512-64c-282.624 0-512 229.376-512 512s229.376 512 512 512c282.624 0 512-229.376 512-512s-229.376-512-512-512zM512-23.040c260.096 0 471.040 210.944 471.040 471.040s-210.944 471.040-471.040 471.040c-260.096 0-471.040-210.944-471.040-471.040s210.944-471.040 471.040-471.040z" />
<glyph unicode="&#xe91b;" d="M645.926 484.292c25.468-14.007 25.468-50.607 0-64.619l-214.37-117.901c-24.574-13.517-54.642 4.262-54.642 32.307v235.807c0 28.045 30.068 45.823 54.642 32.308l214.37-117.902z" />
<glyph unicode="&#xe91c;" glyph-name="question" d="M508.911 313.175h-74.958v-74.957h74.958v74.957zM597.861 497.57c79.455 101.443 20.991 237.366-113.936 242.863-82.454 0-149.916-67.462-149.916-150.915h74.958c0 41.977 33.981 75.458 74.958 75.458 83.952-6.496 99.944-85.952 38.478-142.42-6.571-5.163-14.367-10.179-22.482-15.4-17.806-11.457-37.151-23.904-48.479-41.068-17.491-24.986-17.491-60.466-17.491-102.942h74.958c0 24.986 0 49.972 17.491 71.46 8.382 10.601 20.778 19.985 33.707 29.774 13.278 10.053 27.119 20.531 37.752 33.19zM487.353 80.818c-210.939 0-381.939 171.002-381.939 381.94s171 381.938 381.939 381.938c210.937 0 381.939-171 381.939-381.938s-171.002-381.94-381.939-381.94zM487.353-19.125c266.136 0 481.881 215.745 481.881 481.882s-215.745 481.882-481.881 481.882-481.882-215.746-481.882-481.882c0-266.138 215.746-481.882 481.882-481.882z" />
<glyph unicode="&#xe91d;" glyph-name="receive-video" d="M515.78 841.216c-23.96 0.176-45.255-11.037-58.854-28.827-5.030-6.58-14.456-7.848-21.054-2.831s-7.869 14.418-2.839 20.998c19.096 24.982 49.18 40.872 82.968 40.624 33.757-0.248 63.834-16.602 82.478-41.891 4.915-6.666 3.481-16.044-3.204-20.946s-16.087-3.471-21.002 3.195c-13.202 17.907-34.504 29.502-58.493 29.678zM516.4 929.3c-42.662 0.383-81.067-17.801-107.602-47.141-5.557-6.145-15.056-6.633-21.217-1.091s-6.651 15.016-1.094 21.16c32.056 35.445 78.56 57.49 130.149 57.036 51.623-0.242 97.626-22.998 129.376-58.594 5.515-6.182 4.961-15.652-1.239-21.152-6.197-5.5-15.692-4.947-21.207 1.236-26.414 29.612-64.471 48.355-107.099 48.546h-0.067zM666.423 731.482c22.503 0 40.55-18.21 40.55-40.442v-556.667c0-0.212-0.212-0.636-0.636-0.636h-380.88v557.090c0 22.444 18.258 40.442 40.551 40.442l300.414 0.212zM666.423 761.338h-300.414c-39.065 0-70.698-31.549-70.698-70.51v-564.926c0-12.281 9.978-22.231 22.292-22.231h388.735c16.984 0 30.572 13.764 30.572 30.49v556.667c0.212 38.96-31.423 70.51-70.487 70.51zM474.759 44.593c0 8.277 6.726 14.986 15.023 14.986h52.864c8.297 0 15.022-6.709 15.022-14.986 0-8.273-6.726-14.982-15.022-14.982h-52.864c-8.297 0-15.023 6.709-15.023 14.982zM706.973 100.705v-76.648c0-20.752-16.984-37.69-37.789-37.69h-306.148c-20.806 0-37.791 16.938-37.791 37.69v76.648h381.727zM737.121 130.564h-441.811v-106.507c0-37.267 30.36-67.545 67.726-67.545h306.36c37.365 0 67.725 30.279 67.725 67.545v106.507z" />
<glyph unicode="&#xe91f;" d="M523.095 921.298c-271.895 0-492.306-220.411-492.306-492.309 0-271.896 220.411-492.308 492.306-492.308 271.9 0 492.308 220.412 492.308 492.308 0 271.898-220.408 492.309-492.308 492.309z" />
<glyph unicode="&#xe920;" d="M762.644 638.106l-87.934-443.341c0 0-12.3-30.748-46.115-15.99l-202.917 155.569-73.784 35.663-124.208 41.815c0 0-19.062 6.762-20.908 21.52s21.523 22.749 21.523 22.749l493.754 193.693c0 0 40.586 17.831 40.586-11.685z" />
<glyph unicode="&#xe921;" d="M410.096 199.747c0 0-5.923 0.555-13.308 23.922-7.373 23.367-44.884 146.345-44.884 146.345l298.222 189.385c0 0 17.219 10.452 16.605 0 0 0 3.072-1.847-6.152-10.457-9.22-8.609-234.272-210.905-234.272-210.905z" />
<glyph unicode="&#xe922;" d="M503.493 274.704l-80.258-73.181c0 0-6.278-4.758-13.139-1.776l15.368 135.924z" />
<glyph unicode="&#xe923;" glyph-name="send-gift" d="M993.276 713.154l-352.845 194.066c-5.21 2.866-11.063 4.369-17.007 4.369-5.948 0-11.797-1.503-17.007-4.369l-352.848-194.066c-5.532-3.046-10.146-7.521-13.359-12.958s-4.908-11.636-4.908-17.952c0-6.315 1.695-12.515 4.908-17.952s7.826-9.912 13.359-12.958l334.57-184.011v-378.214l-107.123 58.927-34.018-61.786 159.42-87.68c5.205-2.876 11.059-4.382 17.007-4.382s11.797 1.506 17.007 4.382l352.845 194.065c5.534 3.042 10.15 7.518 13.367 12.954 3.213 5.436 4.911 11.639 4.911 17.954v458.701c0 6.316-1.698 12.517-4.911 17.954-3.217 5.437-7.834 9.911-13.367 12.956zM623.424 836.015l279.629-153.771-279.629-153.771-279.632 153.771 279.632 153.771zM940.983 244.399l-282.274-155.255v378.219l282.274 155.251v-378.214zM305.861 452.894h-282.277v70.569h282.277v-70.569zM376.43 170.615h-282.278v70.571h282.278v-70.571zM446.997 311.757h-282.275v70.566h282.275v-70.566z" />
<glyph unicode="&#xe924;" glyph-name="send-request" d="M152.602 466.671c0 7.733 6.285 14.002 14.038 14.002h690.9c7.752 0 14.036-6.269 14.036-14.002v-487.041c0-7.733-6.284-14.002-14.036-14.002h-690.9c-7.753 0-14.038 6.269-14.038 14.002v487.041zM180.678 452.669v-459.036h662.822v459.036h-662.822zM424.218 267.749c5.78-5.154 6.277-14.002 1.11-19.767l-248.222-276.946c-5.167-5.765-14.041-6.262-19.821-1.107s-6.277 14.006-1.11 19.771l248.223 276.943c5.167 5.765 14.041 6.262 19.821 1.107zM600.716 267.765c5.787 5.143 14.662 4.635 19.82-1.138l247.486-276.943c5.158-5.772 4.65-14.624-1.138-19.767-5.791-5.147-14.662-4.638-19.82 1.134l-247.486 276.946c-5.162 5.772-4.65 14.62 1.138 19.767zM155.924 475.716c5.008 5.901 13.865 6.637 19.784 1.642l335.661-283.261 329.020 276.666c5.924 4.987 14.784 4.233 19.778-1.676 4.999-5.913 4.244-14.746-1.684-19.729l-338.082-284.293c-5.235-4.399-12.89-4.392-18.116 0.019l-344.713 290.899c-5.918 4.995-6.657 13.832-1.649 19.733zM291.13 778.249c4.399-0.006 8.513-2.171 11.002-5.789l122.27-177.774c2.806-4.079 3.115-9.373 0.804-13.75-2.312-4.375-6.864-7.117-11.824-7.117h-54.4v-54.989c0-7.361-5.983-13.327-13.364-13.327s-13.364 5.966-13.364 13.327v68.317c0 7.361 5.983 13.328 13.364 13.328h42.391l-96.93 140.931-97.514-140.931h43.041c7.38 0 13.364-5.967 13.364-13.328v-68.317c0-7.361-5.983-13.327-13.364-13.327s-13.364 5.966-13.364 13.327v54.989h-55.137c-4.967 0-9.524 2.746-11.833 7.134-2.309 4.386-1.987 9.687 0.834 13.764l123.007 177.774c2.498 3.611 6.619 5.764 11.018 5.758zM509.139 951.615c4.393 0 8.505-2.153 10.999-5.758l123.006-177.774c2.822-4.077 3.144-9.378 0.834-13.765s-6.865-7.133-11.833-7.133h-55.137v-228.355c0-7.361-5.985-13.331-13.365-13.331s-13.361 5.97-13.361 13.331v241.683c0 7.361 5.981 13.328 13.361 13.328h43.042l-97.547 140.979-97.547-140.979h43.041c7.381 0 13.364-5.967 13.364-13.328v-241.683c0-7.361-5.983-13.331-13.364-13.331s-13.364 5.97-13.364 13.331v228.355h-55.137c-4.967 0-9.524 2.747-11.833 7.133s-1.987 9.688 0.834 13.765l123.007 177.774c2.495 3.606 6.607 5.758 10.999 5.758zM727.142 774.577c4.399 0.006 8.518-2.147 11.017-5.758l123.009-177.773c2.818-4.077 3.14-9.379 0.831-13.764-2.306-4.388-6.865-7.134-11.833-7.134h-55.137v-51.318c0-7.361-5.981-13.327-13.361-13.327s-13.365 5.966-13.365 13.327v64.645c0 7.361 5.985 13.328 13.365 13.328h43.042l-97.515 140.931-96.931-140.931h42.39c7.38 0 13.365-5.967 13.365-13.328v-64.645c0-7.361-5.985-13.327-13.365-13.327s-13.361 5.966-13.361 13.327v51.318h-54.401c-4.961 0-9.512 2.738-11.825 7.115-2.31 4.379-2.002 9.673 0.804 13.752l122.269 177.774c2.488 3.618 6.603 5.783 11.002 5.789z" />
<glyph unicode="&#xe925;" glyph-name="setting" d="M491.568 613.289c-91.027 0-165.291-74.052-165.291-165.291 0-91.242 74.052-165.293 165.291-165.293 91.029 0 165.29 74.051 165.29 165.293 0 91.239-74.262 165.291-165.29 165.291zM610.606 447.998c0-65.566-53.474-119.035-119.038-119.035-65.565 0-119.036 53.469-119.036 119.035s53.471 119.035 119.036 119.035c65.563 0 119.038-53.258 119.038-119.035zM921.875 560.033h-89.756c-12.094 0-22.275 6.79-26.947 18.036-4.667 11.246-2.334 23.128 6.37 31.828l63.439 63.443c10.396 10.397 16.125 23.977 16.125 38.618s-5.729 28.433-16.125 38.617l-80.842 80.842c-20.582 20.582-56.654 20.582-77.447 0l-63.445-63.443c-8.699-8.7-20.577-11.034-31.825-6.366s-18.033 14.641-18.033 26.947v89.754c0 30.13-24.614 54.744-54.746 54.744h-114.367c-30.13 0-54.744-24.613-54.744-54.744v-89.754c0-12.095-6.79-22.28-18.036-26.947s-23.128-2.334-31.828 6.366l-63.443 63.443c-20.582 20.582-56.653 20.582-77.447 0l-80.63-80.842c-10.397-10.397-16.126-23.977-16.126-38.617s5.729-28.22 16.126-38.618l63.443-63.443c8.7-8.7 11.034-20.582 6.366-31.828s-14.641-18.036-26.947-18.036h-89.754c-30.13 0-54.744-24.613-54.744-54.744v-114.369c0-30.127 24.613-54.741 54.744-54.741h89.754c12.095 0 22.28-6.791 26.947-18.033 4.668-11.248 2.334-23.132-6.366-31.83l-63.443-63.445c-10.397-10.396-16.126-23.972-16.126-38.616s5.729-28.435 16.126-38.616l80.842-81.058c9.973-9.971 23.977-15.489 38.617-15.489s28.857 5.729 38.618 15.489l63.443 63.445c8.7 8.699 20.582 11.032 31.828 6.365s18.036-14.643 18.036-26.947v-89.756c0-30.127 24.613-54.741 54.744-54.741h114.367c30.133 0 54.746 24.614 54.746 54.741v89.756c0 12.094 6.785 22.28 18.033 26.947s23.126 2.334 31.825-6.365l63.445-63.445c20.582-20.582 56.864-20.582 77.447 0l80.842 80.842c10.396 10.396 16.125 23.978 16.125 38.621 0 14.638-5.729 28.219-16.125 38.616l-63.439 63.445c-8.704 8.699-11.038 20.582-6.37 31.825 4.673 11.248 14.643 18.039 26.947 18.039h89.756c30.133 0 54.741 24.614 54.741 54.741v114.368c0 30.342-24.608 54.955-54.741 54.955zM762.524 335.753c-11.884-28.645-5.729-60.050 16.341-82.114l63.439-63.445c1.698-1.698 2.549-3.816 2.549-6.149s-0.852-4.457-2.549-5.945l-80.842-80.842c-1.698-1.698-3.816-2.544-6.149-2.544-2.339 0-4.457 0.846-5.945 2.544l-63.445 63.445c-21.854 21.854-53.469 28.219-82.114 16.335-28.645-11.878-46.468-38.616-46.468-69.594v-89.756c0-4.667-3.816-8.483-8.488-8.483h-114.365c-4.668 0-8.487 3.816-8.487 8.483v89.756c0 30.979-17.823 57.716-46.468 69.594-9.549 4.031-19.309 5.945-29.282 5.945-19.733 0-38.405-7.852-52.834-22.28l-63.443-63.445c-1.697-1.698-3.819-2.544-6.153-2.544s-4.456 0.846-5.941 2.544l-80.842 80.842c-1.697 1.698-2.546 3.821-2.546 6.155s0.849 4.457 2.546 5.939l63.443 63.445c22.067 22.065 28.22 53.469 16.338 82.114s-38.618 46.468-69.596 46.468h-89.966c-4.668 0-8.488 3.821-8.488 8.488v114.368c0 4.668 3.819 8.487 8.488 8.487h89.754c30.979 0 57.714 17.823 69.596 46.468s5.729 60.048-16.338 82.115l-63.443 63.443c-1.698 1.697-2.547 3.819-2.547 6.153s0.849 4.456 2.547 5.941l80.842 80.842c1.697 1.697 3.819 2.546 5.941 2.546 2.334 0 4.456-0.849 6.154-2.546l63.443-63.231c21.855-21.855 53.471-28.22 82.115-16.338s46.469 38.405 46.469 69.596v89.754c0 4.668 3.819 8.487 8.487 8.487h114.367c4.667 0 8.488-3.819 8.488-8.487v-89.754c0-30.979 17.823-57.714 46.468-69.596s60.050-5.517 82.114 16.338l63.445 63.443c1.698 1.698 3.816 2.547 6.155 2.547 2.334 0 4.452-0.849 5.939-2.547l80.842-80.842c1.698-1.697 2.544-3.819 2.544-6.153s-0.846-4.456-2.544-5.941l-63.229-63.443c-22.070-22.067-28.225-53.471-16.341-82.115s38.616-46.469 69.594-46.469h89.756c2.334 0 4.457-0.849 5.939-2.546 1.698-1.698 2.549-3.82 2.549-5.941v-114.369c0-4.667-3.821-8.483-8.488-8.483h-89.756c-30.979-0.216-57.71-18.039-69.594-46.684z" />
<glyph unicode="&#xe926;" glyph-name="share" d="M785.863 653.024c-59.927 0-108.51 48.583-108.51 108.512s48.583 108.513 108.51 108.513c59.932 0 108.516-48.583 108.516-108.513s-48.583-108.512-108.516-108.512zM785.863 606.518c85.618 0 155.022 69.404 155.022 155.018s-69.404 155.018-155.022 155.018c-85.612 0-155.017-69.404-155.017-155.018s69.404-155.018 155.017-155.018zM785.863 32.95c-59.927 0-108.51 48.583-108.51 108.516 0 59.927 48.583 108.51 108.51 108.51 59.932 0 108.516-48.583 108.516-108.51 0-59.932-48.583-108.516-108.516-108.516zM785.863-13.551c85.618 0 155.022 69.404 155.022 155.017s-69.404 155.017-155.022 155.017c-85.612 0-155.017-69.404-155.017-155.017s69.404-155.017 155.017-155.017zM227.796 342.989c-59.93 0-108.513 48.582-108.513 108.512s48.583 108.513 108.513 108.513c59.93 0 108.513-48.583 108.513-108.513s-48.583-108.512-108.513-108.512zM227.796 296.482c85.614 0 155.018 69.404 155.018 155.018s-69.404 155.018-155.018 155.018c-85.614 0-155.018-69.404-155.018-155.018s69.404-155.018 155.018-155.018z" />
<glyph unicode="&#xe927;" glyph-name="stop-watch" d="M506.728 790.466c-228.698 0-414.778-186.080-414.778-414.776 0-228.7 186.080-414.781 414.778-414.781s414.78 186.081 414.78 414.781c0 228.696-186.081 414.776-414.78 414.776zM558.576 375.69h-103.695v259.234h103.695v-259.234zM351.186 946.008h311.086v-103.695h-311.086v103.695zM854.467 827.122l103.695-103.695-73.313-73.312-103.695 103.694 73.313 73.312z" />
<glyph unicode="&#xe928;" glyph-name="Swap" d="M938.833 514.417c-1.843 1.856-4.032 3.329-6.447 4.334-2.411 1.005-5.001 1.523-7.612 1.523-2.615 0-5.201-0.518-7.616-1.523-2.411-1.005-4.604-2.478-6.443-4.334l-46.729-46.726c-5.794 74.74-35.012 145.748-83.494 202.926s-113.758 97.611-186.543 115.55c-72.789 17.939-149.376 12.469-218.876-15.631-69.498-28.1-128.367-77.399-168.231-140.885-2.783-4.463-3.679-9.85-2.491-14.974s4.363-9.566 8.827-12.349c4.463-2.783 9.85-3.679 14.974-2.491s9.566 4.363 12.349 8.827c35.156 56.131 87.022 99.831 148.304 124.956s128.895 30.411 193.338 15.114c64.439-15.296 122.466-50.406 165.918-100.391 43.456-49.986 70.148-112.333 76.326-178.275l-43.955 43.954c-1.843 1.846-4.036 3.311-6.447 4.31-2.415 0.999-4.996 1.513-7.607 1.513s-5.197-0.514-7.607-1.513c-2.415-0.999-4.604-2.464-6.451-4.31s-3.311-4.039-4.309-6.45c-0.998-2.411-1.515-4.996-1.515-7.607s0.516-5.197 1.515-7.607c0.998-2.411 2.462-4.604 4.309-6.451l79.198-79.198c1.839-1.856 4.032-3.328 6.443-4.335 2.415-1.003 5.001-1.523 7.616-1.523 2.611 0 5.201 0.521 7.612 1.523 2.415 1.007 4.604 2.479 6.443 4.335l79.202 79.198c1.916 1.847 3.439 4.062 4.48 6.511s1.579 5.086 1.579 7.744c0 2.662-0.538 5.295-1.579 7.748-1.041 2.449-2.564 4.662-4.48 6.509zM804.787 279.595c-2.206 1.382-4.668 2.317-7.236 2.743-2.573 0.431-5.201 0.35-7.74-0.239s-4.937-1.673-7.053-3.191c-2.121-1.515-3.917-3.435-5.295-5.649-35.157-56.132-87.023-99.831-148.301-124.954-61.282-25.126-128.896-30.413-193.34-15.117-64.441 15.296-122.467 50.406-165.92 100.39-43.453 49.988-70.146 112.333-76.326 178.278l43.955-43.955c1.841-1.856 4.030-3.328 6.443-4.335s5.001-1.523 7.614-1.523c2.614 0 5.202 0.516 7.615 1.523s4.602 2.479 6.443 4.335c1.856 1.839 3.329 4.028 4.334 6.443 1.005 2.411 1.523 5.001 1.523 7.612 0 2.615-0.518 5.205-1.523 7.616-1.005 2.415-2.478 4.604-4.334 6.443l-79.198 79.198c-1.841 1.856-4.031 3.328-6.444 4.335s-5.001 1.523-7.614 1.523c-2.614 0-5.202-0.516-7.615-1.523s-4.602-2.479-6.443-4.335l-79.198-79.198c-3.729-3.729-5.823-8.785-5.823-14.059 0-5.269 2.095-10.325 5.823-14.054s8.785-5.824 14.057-5.824c5.273 0 10.33 2.095 14.058 5.824l46.727 46.724c5.797-74.739 35.014-145.749 83.496-202.923 48.481-57.178 113.757-97.613 186.544-115.55 72.784-17.941 149.375-12.471 218.875 15.629s128.367 77.397 168.23 140.885c2.667 4.429 3.499 9.724 2.317 14.754-1.186 5.030-4.288 9.399-8.653 12.173z" />
<glyph unicode="&#xe929;" glyph-name="tweetericon" d="M1024 765.556c-37.696-16.703-78.125-28.033-120.621-33.088 43.386 25.992 76.602 67.213 92.326 116.167-40.691-24.067-85.6-41.54-133.472-51.012-38.33 40.903-92.845 66.376-153.312 66.376-116.006 0-210.073-94.092-210.073-210.059 0-16.452 1.857-32.518 5.438-47.882-174.565 8.769-329.337 92.418-432.941 219.531-18.104-30.979-28.411-67.079-28.411-105.607 0-72.904 37.112-137.222 93.432-174.862-34.435 1.155-66.811 10.628-95.155 26.376v-2.627c0-101.774 72.433-186.694 168.475-206.025-17.602-4.737-36.158-7.364-55.35-7.364-13.569 0-26.687 1.339-39.537 3.9 26.754-83.531 104.307-144.27 196.183-145.921-71.864-56.32-162.468-89.792-260.886-89.792-16.95 0-33.665 1.018-50.096 2.874 92.98-59.712 203.361-94.541 321.991-94.541 386.425 0 597.651 320.15 597.651 597.807l-0.704 27.197c41.261 29.439 76.966 66.444 105.062 108.552z" />
<glyph unicode="&#xe92a;" glyph-name="user-lines" d="M447.73 599.208c0-81.068-65.442-146.509-146.511-146.509s-146.509 65.441-146.509 146.509c0 81.068 65.441 146.509 146.509 146.509s146.511-65.441 146.511-146.509zM594.239 62.005h-586.040v97.673c0 107.93 131.37 195.346 293.019 195.346s293.020-87.417 293.020-195.346v-97.673zM252.382 599.208c0-26.86 21.976-48.837 48.837-48.837s48.837 21.977 48.837 48.837c0 26.86-21.977 48.837-48.837 48.837s-48.837-21.977-48.837-48.837zM105.873 159.678h390.693c0 53.719-87.419 97.673-195.347 97.673s-195.346-43.954-195.346-97.673zM984.928 452.698v-97.673h-439.525v97.673h439.525zM984.928 648.044v-97.673h-439.525v97.673h439.525zM984.928 843.39v-97.673h-439.525v97.673h439.525z" />
<glyph unicode="&#xe92b;" glyph-name="user-plus" d="M854.4 262.948c-81.679 69.448-200.049 104.75-351.871 104.75-152.054 0-270.652-35.302-352.563-104.75-82.372-70.144-124.366-171.668-124.366-302.034v-24.919h952.704v24.919c0 130.365-41.533 231.89-123.904 302.034zM76.131-14.167c5.538 121.6 53.069 210.893 141.44 265.81 70.374 43.607 165.898 65.987 283.803 65.987s213.429-22.149 283.803-65.987c88.371-54.917 135.905-144.21 141.44-265.81h-850.487zM501.374 451.23c64.606 0 125.288 27.458 170.743 77.065 45.225 49.377 70.144 115.367 70.144 185.28 0 140.517-103.598 246.425-240.887 246.425-137.288 0-241.118-105.907-241.118-246.194 0-70.143 24.92-135.903 70.143-185.28 45.685-49.839 106.138-77.296 170.975-77.296zM310.326 713.806c0 113.752 80.296 196.355 190.818 196.355s190.819-82.603 190.819-196.355c0-117.213-85.606-212.507-190.819-212.507-104.985 0-190.818 95.293-190.818 212.507zM742.4 495.613h104.755v105.987h45.932v-105.987h105.313v-42.938h-105.313v-107.075h-45.932v107.075h-104.755v42.938z" />
<glyph unicode="&#xe92c;" glyph-name="wallet" d="M523.633 282.608v126.031c0 43.48 37.413 78.769 83.512 78.769h317.343v110.277c0 34.816-29.894 63.016-66.806 63.016h-734.906c-36.912 0-66.81-28.2-66.81-63.016v-504.125c0-34.816 29.897-63.017 66.81-63.017h734.906c36.912 0 66.806 28.201 66.806 63.017v110.278h-317.343c-46.099 0-83.512 35.289-83.512 78.77zM941.22 455.9h-334.046c-27.559 0-50.107-21.268-50.107-47.262v-126.031c0-25.994 22.548-47.262 50.107-47.262h334.046c27.559 0 50.108 21.268 50.108 47.262v126.031c0 25.994-22.548 47.262-50.108 47.262zM673.983 298.362c-27.559 0-50.107 21.267-50.107 47.261s22.548 47.262 50.107 47.262c27.559 0 50.108-21.268 50.108-47.262s-22.548-47.261-50.108-47.261zM488.714 779.011l-70.149 66.166c-6.514 6.144-17.037 6.144-23.718 0l-162.18-152.97h154.831l101.216 86.803zM743.786 692.207l-142.135 121.935c-6.347 5.514-16.034 5.514-22.381 0l-66.976-57.344-75.161-64.591h306.653z" />
<glyph unicode="&#xe92d;" glyph-name="warning" d="M957.268 135.276l-362.124 699.092c-20.927 40.377-62.996 65.533-109.715 65.533s-88.787-25.156-109.716-65.533l-361.703-698.672c-13.318-25.578-17.123-53.48-10.781-78.638 13.952-55.808 62.362-93.437 120.286-93.437h723.829c29.594 0 57.075 9.087 77.371 25.789 45.449 37.209 58.557 95.766 32.552 145.866zM892.793 25.137c-11.841-9.302-28.117-14.374-45.66-14.374h-723.196c-17.334 0-33.612 5.071-45.451 14.374-28.75 22.409-37.206 58.136-21.351 88.996l362.548 699.941c9.090 17.546 24.311 30.441 41.646 35.304 8.033 2.326 16.067 3.382 23.888 3.382 28.327 0 53.695-14.375 66.589-39.532l362.124-699.095c16.066-30.86 7.4-66.587-21.138-88.996zM557.525 617.26h-158.974c-6.976 0-13.53-2.959-17.969-8.033-4.439-4.862-6.553-11.204-5.919-17.757l31.075-313.082c1.269-12.045 11.415-21.138 23.888-21.138h96.609c12.472 0 22.833 9.092 23.889 21.138l31.496 313.293c0.636 6.554-1.477 12.684-5.918 17.757-4.651 4.862-11.205 7.822-18.179 7.822zM528.984 553.841l-23.465-235.711c-0.846-7.61-7.399-13.528-15.432-13.528h-23.888c-8.033 0-14.798 5.707-15.432 13.528l-23.465 235.711c-0.423 4.017 0.846 8.033 3.805 11.204s7.188 5.074 11.839 5.074h70.818c4.44 0 8.879-1.903 11.839-5.074 2.537-3.171 3.806-7.187 3.382-11.204zM511.848 216.447c-34.035 13.107-70.184 5.923-94.495-19.025-22.831-23.256-28.962-57.075-16.278-88.15 7.822-19.030 23.465-34.25 43.125-41.86 11.204-4.441 22.831-6.554 34.035-6.554 22.831 0 44.394 8.666 60.671 25.368 22.832 23.466 28.96 57.29 16.068 88.156-7.826 19.235-23.467 34.455-43.128 42.065zM513.328 142.034c0-18.599-15.855-33.824-35.092-33.824s-35.092 15.225-35.092 33.824c0 18.604 15.855 33.824 35.092 33.824s35.092-15.22 35.092-33.824z" />
<glyph unicode="&#xe92e;" d="M267.032 75.063l15.966-7.987c66.532-39.916 141.041-58.541 215.553-58.541 234.181 0 425.779 191.598 425.779 425.779 0 111.766-45.241 220.871-125.070 300.706-79.837 79.835-186.281 125.072-300.709 125.072-234.177 0-425.782-191.6-423.119-428.44 0-79.833 23.95-157.007 63.865-223.531l10.644-15.97-42.574-157.007 159.666 39.92z" />
<glyph unicode="&#xe92f;" d="M844.497 777.598c-90.478 93.138-215.552 143.7-343.284 143.7-271.432 0-489.646-220.872-486.987-489.647 0-85.153 23.95-167.652 63.869-242.16l-69.191-252.81 258.129 66.528c71.85-39.916 151.681-58.545 231.521-58.545 268.772 0 486.983 220.877 486.983 489.645 0 130.395-50.562 252.809-141.036 343.288h-0.004zM501.213 27.156c-71.849 0-143.701 18.625-204.908 55.883l-15.965 7.983-154.344-39.916 39.916 151.682-10.644 15.97c-117.091 188.936-61.207 439.090 130.394 556.181 191.602 117.087 439.087 61.203 556.177-130.398 117.087-191.602 61.204-439.087-130.395-556.178-61.212-39.916-135.719-61.204-210.231-61.204v-0.004zM735.39 322.54l-29.271 13.304c0 0-42.575 18.629-69.187 31.937-2.662 0-5.321 2.662-7.987 2.662-7.983 0-13.304-2.662-18.625-5.325 0 0-2.662-2.662-39.916-45.237-2.662-5.325-7.987-7.987-13.308-7.987h-2.662c-2.658 0-7.979 2.662-10.642 5.321l-13.308 5.325c-29.271 13.304-55.879 29.275-77.17 50.562-5.325 5.321-13.308 10.642-18.629 15.967-18.629 18.625-37.258 39.916-50.56 63.866l-2.663 5.325c-2.659 2.662-2.659 5.321-5.322 10.642 0 5.321 0 10.646 2.662 13.308 0 0 10.644 13.304 18.624 21.287 5.325 5.325 7.983 13.304 13.308 18.629 5.321 7.983 7.983 18.625 5.321 26.612-2.658 13.304-34.594 85.155-42.575 101.121-5.326 7.985-10.644 10.644-18.628 13.306h-29.272c-5.326 0-10.644-2.663-15.969-2.663l-2.663-2.659c-5.322-2.663-10.644-7.984-15.966-10.644-5.322-5.326-7.984-10.644-13.306-15.969-18.629-23.95-29.272-53.222-29.272-82.493 0-21.287 5.322-42.579 13.306-61.208l2.663-7.983c23.95-50.562 55.881-95.803 98.463-135.715l10.644-10.646c7.981-7.983 15.965-13.304 21.287-21.287 55.883-47.904 119.749-82.499 191.602-101.124 7.983-2.658 18.625-2.658 26.612-5.325h26.608c13.304 0 29.271 5.325 39.92 10.646 7.979 5.321 13.3 5.321 18.625 10.642l5.325 5.329c5.321 5.321 10.642 7.979 15.963 13.3 5.325 5.321 10.646 10.646 13.308 15.97 5.321 10.642 7.979 23.95 10.646 37.254v18.625c0 0-2.666 2.666-7.987 5.325z" />
<glyph unicode="&#xe930;" glyph-name="whatsapp-line" d="M1024 461.198c0-275.457-225.050-498.804-502.67-498.804-88.178 0-170.894 22.528-243.030 62.125l-278.3-88.518 90.681 267.603c-45.739 75.206-72.135 163.273-72.135 257.595 0 275.456 225.166 498.802 502.784 498.802 277.62 0 502.67-223.346 502.67-498.802zM521.33 880.583c-233.017 0-422.685-188.075-422.685-419.385 0-91.705 29.924-176.699 80.555-245.876l-52.793-155.757 162.361 51.654c66.674-43.808 146.66-69.408 232.562-69.408 233.019 0 422.683 188.077 422.683 419.387s-189.664 419.385-422.683 419.385zM775.168 346.283c-3.072 5.12-11.264 8.192-23.667 14.222-12.288 6.144-72.928 35.726-84.192 39.708-11.264 4.096-19.571 6.144-27.764-6.144s-31.858-39.708-39.026-47.9c-7.168-8.192-14.336-9.216-26.738-3.072-12.288 6.144-51.996 19.001-99.1 60.643-36.637 32.427-61.326 72.363-68.608 84.651-7.168 12.288-0.797 18.887 5.347 24.917 5.576 5.462 12.288 14.336 18.546 21.391 6.144 7.168 8.192 12.288 12.288 20.366 4.096 8.192 2.048 15.246-1.024 21.39s-27.762 66.333-38.002 90.795c-10.24 24.462-20.48 20.366-27.761 20.366-7.168 0-15.36 1.024-23.666 1.024s-21.618-3.072-32.882-15.246c-11.264-12.288-43.122-41.87-43.122-101.945 0-60.189 44.146-118.329 50.29-126.407 6.144-8.192 85.22-135.621 210.489-184.549 125.267-48.922 125.267-32.653 147.91-30.605 22.528 2.048 72.934 29.581 83.174 58.138 10.579 28.672 10.579 53.137 7.507 58.257z" />
</font>
</defs>
</svg>
